<svg width="113" height="161" viewBox="0 0 113 161" fill="none" xmlns="http://www.w3.org/2000/svg">
<path d="M80.3932 121.655L27.5195 121.101L27.4958 123.367L80.3694 123.921L80.3932 121.655Z" fill="white"/>
<path d="M83.9815 127.517L23.6646 126.884L23.6408 129.15L83.9578 129.782L83.9815 127.517Z" fill="white"/>
<path d="M105.023 150.379C105.924 149.513 107.026 149.074 108.342 149.074C109.658 149.074 110.748 149.513 111.649 150.379C112.55 151.257 113 152.337 113 153.606C113 154.876 112.55 155.932 111.649 156.798C110.76 157.676 109.658 158.115 108.342 158.115C107.026 158.115 105.924 157.676 105.023 156.798C104.122 155.932 103.672 154.864 103.672 153.606C103.672 152.349 104.122 151.257 105.023 150.379ZM105.841 156.074C106.517 156.738 107.346 157.059 108.342 157.059C109.338 157.059 110.179 156.727 110.855 156.074C111.53 155.41 111.862 154.591 111.862 153.606C111.862 152.622 111.53 151.779 110.855 151.127C110.179 150.474 109.349 150.142 108.342 150.142C107.334 150.142 106.505 150.474 105.829 151.127C105.154 151.791 104.822 152.61 104.822 153.606C104.822 154.603 105.165 155.41 105.841 156.074ZM110.298 154.722L110.333 155.315C110.333 155.564 110.404 155.742 110.511 155.813H109.101C109.029 155.683 108.994 155.516 108.982 155.315L108.946 154.828C108.935 154.627 108.887 154.496 108.816 154.425C108.745 154.354 108.615 154.318 108.425 154.318H107.856V155.813H106.505V151.328H108.709C109.243 151.328 109.658 151.447 109.954 151.684C110.25 151.922 110.393 152.254 110.393 152.681C110.393 153.108 110.191 153.452 109.788 153.689C110.108 153.867 110.286 154.2 110.31 154.71L110.298 154.722ZM107.856 152.432V153.298H108.52C108.828 153.298 108.994 153.155 108.994 152.859C108.994 152.562 108.84 152.42 108.52 152.42H107.856V152.432Z" fill="white"/>
<path d="M55.4419 4.37856C55.4419 4.37856 55.3826 4.37856 55.3589 4.3667C55.3944 4.3667 55.4182 4.3667 55.4419 4.37856Z" fill="white"/>
<path d="M55.6082 4.41616C55.6082 4.41616 55.5608 4.4043 55.5371 4.4043C55.5608 4.4043 55.5845 4.4043 55.6082 4.41616Z" fill="white"/>
<path d="M71.8932 95.7919C71.8932 95.7919 70.613 78.8618 59.649 69.062C59.649 69.062 63.8686 75.611 58.3214 87.3209C58.3214 87.3209 55.4767 93.6683 48.4834 99.6003C44.3111 102.827 36.8081 106.814 29.0088 106.126C29.0088 106.126 37.3178 111.168 50.4273 111.393L52.466 111.512C52.466 111.512 52.5964 115.237 53.8884 117.812L77.2034 118.061C80.6052 115.024 85.4649 98.7224 71.905 95.8038L71.8932 95.7919Z" fill="white"/>
<path d="M65.3995 57.7928C65.3521 53.6522 61.2628 53.8539 61.2628 53.8539L60.6228 51.4692C58.1455 53.4743 56.4268 54.281 54.1628 54.4709L54.6844 56.903C54.0088 57.1047 53.9258 57.7454 53.9258 57.7454C55.7867 57.6979 55.7156 60.4148 55.7156 60.4148L57.3513 61.8622C60.8717 61.6605 59.9353 65.9316 59.9353 65.9316C62.5667 67.2248 65.8263 72.362 65.8263 72.362C65.8263 72.362 65.4351 61.9334 65.3877 57.7928H65.3995Z" fill="white"/>
<path d="M58.881 15.6038C56.5104 5.25826 52.5515 2.93289 52.5515 2.93289C46.7316 -1.53989 38.7664 1.9719 38.7664 1.9719C36.1705 2.76679 34.7363 4.83116 34.7363 4.83116C37.6522 2.14986 44.0765 2.30409 44.0765 2.30409C50.9158 3.32441 53.6183 10.8937 53.6183 10.8937L58.3595 25.8188L62.3184 39.1067C63.3378 43.449 62.8755 46.0353 61.7139 47.7556L64.6772 44.9676C66.87 41.3015 65.092 36.4491 65.092 36.4491L58.881 15.5801V15.6038Z" fill="white"/>
<path d="M39.3806 11.1187C39.3806 11.1187 45.2715 9.76614 49.1001 7.4645C48.8275 6.97807 48.6023 6.74078 48.2941 6.3374C47.5829 6.71706 45.5323 7.98652 41.04 9.44581C36.9033 10.9288 31.2375 11.878 29.2936 11.6288C29.2936 11.6288 28.6773 12.4474 28.9617 12.6847C29.8507 13.444 39.3687 11.1187 39.3687 11.1187H39.3806Z" fill="white"/>
<path d="M39.0746 8.28373C43.5788 7.40578 46.1391 5.94649 46.9451 5.5787C43.887 3.34824 40.6629 3.79908 40.6629 3.79908C40.6629 3.79908 36.9292 4.59398 35.5069 4.8194C35.2935 4.85499 35.0683 4.91431 34.8431 4.9855C31.7376 6.44479 30.6353 9.83793 30.6353 9.83793L31.6902 9.71929L39.0746 8.28373Z" fill="white"/>
<path d="M54.5756 22.2233L54.1371 20.8589C45.591 26.8384 32.9675 27.0638 32.0074 26.9571C31.0473 26.8384 31.3673 26.0554 31.3673 26.0554L31.3318 25.6045C30.7628 25.8656 30.8221 26.6605 30.8221 26.6605L31.2014 27.752C33.4653 28.879 44.1686 28.357 54.5875 22.2351L54.5756 22.2233Z" fill="white"/>
<path d="M29.8282 18.4397C32.3648 18.5584 36.8334 17.5381 36.8334 17.5381C42.9377 16.5178 49.3384 13.7415 51.389 12.8043L50.9741 11.5229C46.304 14.311 37.0942 16.2449 37.0942 16.2449C37.0942 16.2449 31.3691 17.3245 30.2194 17.2533C29.0696 17.1821 29.6979 16.2686 29.6979 16.2686L29.5201 15.8178C28.3703 16.6008 28.6192 17.7042 28.9156 18.0601C29.2119 18.416 29.8401 18.4397 29.8401 18.4397H29.8282Z" fill="white"/>
<path d="M53.7107 19.612L53.2603 18.2002C49.9059 20.5493 36.1445 24.3696 32.0907 24.1441C30.3009 24.0492 30.3246 23.2543 30.3246 23.2543L30.2891 22.934L30.1942 22.9933C29.3527 23.278 30.3128 24.9865 30.3128 24.9865L31.0714 25.4017C33.2879 26.1729 44.8446 24.8441 53.7226 19.612H53.7107Z" fill="white"/>
<path d="M39.7732 21.2615C43.4002 20.5022 51.3062 17.5006 52.7879 16.7413L51.8989 13.9888C47.1695 16.4446 38.8842 18.6751 38.8842 18.6751C34.7356 19.7547 30.3974 20.0276 29.7336 19.8378C29.0699 19.648 29.4373 18.7463 29.4373 18.7463L29.3781 18.3666C28.7024 19.2683 28.9276 19.8971 28.9276 19.8971L29.6033 22.0445C31.8079 23.2309 35.4231 22.1632 39.7732 21.2496V21.2615Z" fill="white"/>
<path d="M37.3797 30.8729C37.5931 30.8254 37.8064 30.8017 38.0316 30.8017C39.8333 30.5763 41.3505 30.2797 41.3505 30.2797C48.8061 28.5238 54.3059 25.7713 55.5386 25.0713L55.0171 23.4341C43.7329 29.6509 35.8862 29.2357 33.48 29.3662C32.3896 29.4255 32.4014 28.6187 32.4014 28.6187L32.2592 28.1204C31.6191 28.3814 31.7139 29.1763 31.7139 29.1763L32.0103 30.2322C32.2829 31.1932 34.9498 31.1339 37.356 30.8729H37.3797Z" fill="white"/>
<path d="M50.5687 10.1694V10.1457C50.3791 9.76605 50.1894 9.39826 49.9998 9.0542C42.1886 13.349 30.4185 15.3185 29.494 14.5473C29.1976 14.2982 29.8377 13.4202 29.8377 13.4202L29.5532 13.3965C29.4347 13.4914 29.3043 13.5626 28.8657 13.9778C28.2968 14.5236 29.0198 15.5676 29.0198 15.5676C32.4335 16.7184 41.8093 14.6185 50.5687 10.1576V10.1694Z" fill="white"/>
<path d="M56.4368 28.0488L55.9864 26.6963C51.4585 29.5793 44.4652 31.3708 41.7627 31.9996L42.2368 33.3165C50.534 31.6555 55.287 28.8081 56.4368 28.0488Z" fill="white"/>
<path d="M58.2871 33.5893L57.9078 32.4385L55.0512 33.969C51.6494 35.6893 46.2325 36.9706 43.7671 37.5045L44.2768 38.8926C53.2258 36.7096 57.2085 34.3367 58.2989 33.6012L58.2871 33.5893Z" fill="white"/>
<path d="M49.1373 34.4917C53.5111 33.2697 56.5929 31.4189 57.3871 30.9088L56.9248 29.5088C56.4862 29.7935 55.135 30.6122 51.745 32.024C48.6395 33.3172 44.728 34.2782 42.7485 34.7171L43.2345 36.0459C44.3606 35.7731 46.2689 35.2866 49.1373 34.4799V34.4917Z" fill="white"/>
<path d="M57.1484 5.62471C57.3262 5.89759 57.4803 6.14674 57.6107 6.37216C59.4598 5.32811 59.5783 5.2332 59.365 4.42644C59.1398 3.59595 57.8478 3.82136 57.8478 3.82136L58.0848 4.04678C60.0287 4.04678 57.9189 5.2332 57.1603 5.62471H57.1484Z" fill="white"/>
<path d="M59.9214 6.25444C60.3363 6.56291 58.8902 7.51204 58.3687 7.83238L58.8665 9.08998L60.3244 8.09339C61.5927 7.32222 60.8222 6.31377 60.8222 6.31377C60.5259 5.8392 59.4591 5.73242 59.4591 5.73242L59.6014 5.92225L59.9333 6.26631L59.9214 6.25444Z" fill="white"/>
<path d="M59.4824 10.6431L60.241 13.2888L61.9242 12.2685C63.0028 11.7465 62.8013 10.655 62.8013 10.655C62.8013 10.655 62.339 9.30244 62.1731 8.8872C62.0071 8.47195 61.3671 8.7211 61.3671 8.7211C62.5998 9.05329 60.324 10.2397 59.4824 10.6431Z" fill="white"/>
<path d="M63.7281 15.6147L63.823 15.8876C65.0794 16.1724 62.3887 17.5961 61.6064 17.9994L61.8909 19.0079C62.4362 18.6757 64.0956 17.6435 64.0956 17.6435C64.9609 17.0978 64.8068 16.6944 64.8068 16.6944L64.6053 16.0419C64.3801 15.5673 63.7163 15.6266 63.7163 15.6266L63.7281 15.6147Z" fill="white"/>
<path d="M64.6635 18.4611C64.6635 18.4611 65.2206 18.2832 64.9598 18.8526C64.7465 19.3272 62.9803 20.3831 62.3877 20.739L62.6959 21.8305L64.8294 20.3119C65.5406 19.8018 65.5406 19.2798 65.5406 19.2798L65.3154 18.4849C65.1495 18.0459 64.6042 18.295 64.6042 18.295L64.6635 18.473V18.4611Z" fill="white"/>
<path d="M65.3527 21.0125L65.4712 21.0362C66.5499 21.5464 64.0015 23.0057 63.1836 23.4447L63.5392 24.6785C64.1437 24.3345 66.1469 23.1481 66.2772 22.3176C66.4313 21.3328 66.1824 21.1668 66.1824 21.1668C65.9098 20.7159 65.2579 20.6685 65.2579 20.6685L65.3646 21.0125H65.3527Z" fill="white"/>
<path d="M65.978 23.5884L66.0254 23.7545H66.0965C67.2226 23.8731 66.3929 24.6206 66.3929 24.6206L63.9985 26.3171L64.3304 27.468C64.6623 27.2425 65.6698 26.5426 66.3336 26.0561C66.3573 26.0443 66.381 26.0205 66.3929 26.0087C67.187 25.4273 67.1515 24.7629 67.1515 24.7629L67.0211 23.9562C66.8551 23.5053 65.9661 23.6002 65.9661 23.6002L65.978 23.5884Z" fill="white"/>
<path d="M66.561 26.5423L66.6677 26.5897C67.533 26.9456 66.8455 27.5982 66.8455 27.5982L64.7949 29.0456L65.1505 30.2913C65.8973 29.8286 66.4425 29.4371 66.8337 29.1049C66.7507 29.0812 66.6914 29.0812 66.6914 29.0812L67.2722 28.7134C68.0427 27.9541 67.9004 27.6338 67.9004 27.6338L67.8649 26.8744C67.6989 25.9609 66.644 26.044 66.644 26.044H66.3477C66.3477 26.044 66.3951 26.1389 66.3951 26.1507L66.561 26.5423Z" fill="white"/>
<path d="M62.7916 12.6489H62.9101C63.8346 12.9217 62.8627 13.6217 62.8627 13.6217L60.7173 14.8675L61.0729 16.1132L63.0879 14.7725C63.9176 14.1437 63.8939 13.5149 63.8939 13.5149L63.6213 12.7556C63.1709 12.2336 62.6849 12.4116 62.6849 12.4116L62.8034 12.637L62.7916 12.6489Z" fill="white"/>
<path d="M55.6445 3.58454C55.8697 3.84555 56.0831 4.10656 56.2727 4.36757C58.4893 2.93201 57.138 2.3744 56.3557 2.18457C57.7188 2.52863 56.2253 3.31166 55.6445 3.58454Z" fill="white"/>
<path d="M55.109 1.46023L54.8363 1.29414C54.7771 1.24668 54.706 1.21109 54.6348 1.16363L54.5519 1.11617C53.248 0.392461 51.5649 0.463646 50.6641 0.558559C51.7308 0.807706 53.1295 1.28227 54.2792 2.21954L55.0971 1.46023H55.109Z" fill="white"/>
<path d="M69.4044 35.5222L68.5628 29.6969C68.5628 29.6969 68.3731 28.8071 67.3656 28.6885C67.3656 28.6885 67.0693 28.9614 66.8915 29.1037C67.3182 29.1986 68.4443 29.5783 67.2708 30.7054L65.564 31.702L65.8366 32.6511C65.8366 32.6511 68.6221 41.2052 66.4767 43.7204C66.4767 43.7204 69.5822 40.7187 69.4162 35.5222H69.4044Z" fill="white"/>
<path d="M33.1238 32.5817C33.1238 31.941 33.1949 31.8105 33.1949 31.8105L33.1001 31.4546L32.9816 31.6444C32.9816 31.6444 32.2704 32.5342 33.0527 33.5308C33.4794 34.0766 34.3802 34.1952 35.1151 34.1952L34.6884 32.9613C33.9417 32.9851 33.1001 32.9376 33.1001 32.5817H33.1238Z" fill="white"/>
<path d="M34.0818 34.5498L34.0226 34.1108L33.9514 34.2295C33.9514 34.2295 33.7025 34.6685 33.8211 35.2261C33.9396 35.7955 34.2952 36.2108 34.2952 36.2108C34.2952 36.2108 34.71 36.8159 36.0494 36.8396L35.6227 35.6057C34.8049 35.5583 33.7855 35.3566 34.0818 34.5498Z" fill="white"/>
<path d="M35.2071 37.5759L35.0886 36.9233L35.0293 37.0657C35.0293 37.0657 34.6737 37.7657 34.899 38.4538C35.0886 39.0233 35.705 39.6402 36.9969 39.5928L36.5702 38.3589C35.8828 38.3589 35.0056 38.2521 35.2071 37.5759Z" fill="white"/>
<path d="M58.7023 34.834C50.9979 40.0543 43.5067 40.5526 43.2341 40.5763C42.6059 38.8441 41.0887 34.6086 40.7924 33.3747C40.5197 32.2358 39.3581 31.6426 38.244 31.6426C38.0306 31.6663 37.8054 31.69 37.5802 31.7256C37.3905 31.7731 37.2127 31.8324 37.0468 31.9155C35.743 32.568 36.2408 33.79 36.2408 33.79L38.4692 40.9085L36.3712 41.0627C36.3712 41.0627 37.0349 43.8389 37.8173 44.883C37.8173 44.8948 37.841 44.9067 37.8647 44.9304C39.1804 47.4931 41.8591 50.7201 47.0626 51.3845C55.4309 52.4523 57.8371 49.9727 60.018 47.2677C61.7723 44.005 58.7142 34.8459 58.7142 34.8459L58.7023 34.834Z" fill="white"/>
<path d="M17.6189 133.059L0.751953 157.938L56.0228 160.299L59.7209 133.687L17.6189 133.059Z" fill="white"/>
<path d="M103.043 158.851L89.1754 134.114L62.4112 133.723L58.7012 160.405L61.0125 160.5L103.043 158.851Z" fill="white"/>
<path d="M35.8017 60.0229C35.8017 60.0229 35.6831 58.5399 36.3469 58.3026C37.0107 58.0653 37.4729 58.1246 38.4212 59.1805L35.8135 60.0229H35.8017Z" fill="white"/>
<path d="M46.5386 58.4574C46.5386 58.4574 46.5386 56.9507 45.1874 56.5354C43.8599 56.1321 43.042 57.4253 43.042 58.2913V58.4337H43.0538C43.0538 58.4337 45.4363 58.3625 46.5031 58.6235H46.5505V58.4574H46.5386Z" fill="white"/>
<path d="M20.5589 70.1784C20.5589 70.1784 20.2626 70.5225 20.5589 70.8903C20.8553 71.2581 21.0449 71.3767 21.0449 71.3767L21.1872 71.5547L22.4791 69.9174L22.6332 69.7276L21.8154 69.1818C21.8154 69.1818 21.3887 68.8022 20.5589 70.1666V70.1784Z" fill="white"/>
<path d="M27.8013 64.6383C27.8013 64.6383 27.2442 63.7485 27.8013 63.3096C28.3584 62.8706 28.7614 62.9062 28.7614 62.9062C28.7614 62.9062 29.1526 62.6808 29.5437 63.4519L27.8013 64.6383Z" fill="white"/>
<path d="M17.809 77.4754L17.7261 77.4161C17.6431 77.3449 17.2282 77.0601 16.6356 77.3093C15.96 77.594 15.9363 78.6143 15.9363 78.6143C15.9363 78.6143 15.794 79.0889 16.6712 79.6465L16.7423 79.694L16.7778 79.7177C16.7778 79.7177 17.7498 77.5822 17.7972 77.511V77.4872L17.809 77.4754Z" fill="white"/>
<path d="M15.7807 84.2598H15.6266C14.5717 84.2835 14.3583 84.8292 14.3583 84.8292C14.3583 84.8292 14.3346 85.7428 14.3702 86.3123C14.4057 86.8817 15.5436 86.9648 15.5436 86.9648H15.6503C15.5436 86.0275 15.7925 84.2835 15.7925 84.2835V84.2598H15.7807Z" fill="white"/>
<path d="M29.3062 64.1506C29.3062 64.1506 29.3654 64.115 29.3891 64.0913C29.3299 64.1269 29.3062 64.1506 29.3062 64.1506Z" fill="white"/>
<path d="M16.7909 91.4617C16.305 89.9431 16.2457 88.733 16.2694 88.3296C16.2694 88.3296 15.9138 89.7414 16.2931 91.7702C16.3287 91.7346 16.5065 91.5804 16.7909 91.4617Z" fill="white"/>
<path d="M20.5222 97.4772C20.5222 97.4772 19.0525 97.9992 19.3132 100.265C19.574 102.531 21.7787 101.191 21.7787 101.191C21.7787 101.191 20.7237 100.609 21.4942 99.0551C21.9209 98.2009 22.1698 97.1687 20.5104 97.4772H20.5222Z" fill="white"/>
<path d="M25.6447 102.864C26.1662 104.857 27.9442 103.41 27.719 103.232C27.4938 103.054 27.6005 102.638 27.9798 101.772C28.3591 100.906 28.4302 99.9689 27.9086 99.6605C26.344 98.735 25.1232 100.871 25.6447 102.864Z" fill="white"/>
<path d="M36.0267 101.345C36.4297 101.819 36.6905 102.472 36.086 102.887C35.3511 103.397 34.1184 102.84 33.668 101.95C33.2413 101.119 32.9805 99.7668 33.9169 99.3041C35.4933 98.521 35.6237 100.858 36.0267 101.345Z" fill="white"/>
<path d="M43.9566 96.3381C44.0277 96.8839 46.3747 98.3669 44.0515 99.0906C43.9922 99.1143 43.7433 99.0906 43.5892 98.9957C43.1269 98.711 42.1668 98.0584 41.7757 97.1924C39.9503 93.6094 43.2336 93.1941 43.9566 96.3263V96.3381Z" fill="white"/>
<path d="M48.1286 88.6855C48.1286 88.6855 47.7849 89.0296 48.1642 89.6702C48.5435 90.3109 49.7406 90.4414 50.5585 90.9278C51.3052 91.3787 50.9378 93.0397 51.4593 92.3634C51.9808 91.6871 52.4431 91.5922 52.3838 90.1211C52.3838 90.1211 52.3127 89.255 51.0682 88.8042C49.8236 88.3533 48.8042 87.7838 48.1286 88.6855Z" fill="white"/>
<path d="M52.3827 80.4763C52.3827 80.4763 54.5992 79.2662 56.5313 80.7017C58.4515 82.1373 56.7209 84.2372 55.7016 83.4898C55.3697 83.2406 54.54 82.2085 52.6079 82.3271C52.6079 82.3271 50.5573 81.722 52.3827 80.4763Z" fill="white"/>
<path d="M54.4592 72.9296C54.4592 72.9296 54.1154 73.6889 54.4947 74.2109C54.874 74.7329 55.5852 74.4007 55.5852 74.4007C55.5852 74.4007 57.292 73.8194 57.778 75.0651C57.9558 75.2194 58.4774 75.9431 58.7855 74.555C59.4967 71.2923 55.1703 71.0906 54.4592 72.9296Z" fill="white"/>
<path d="M54.768 64.757C54.768 64.757 50.5483 66.9993 52.7411 67.984C53.4879 68.3281 55.5029 66.7264 55.5029 66.7264C55.5029 66.7264 56.8541 66.4298 57.0675 67.4739L57.2097 67.3434C57.2097 67.3434 57.5653 63.6892 54.768 64.7688V64.757Z" fill="white"/>
<path d="M49.0753 61.4692C49.0753 61.4692 49.9406 59.2506 51.3393 59.476C52.7379 59.7015 52.5601 60.0693 52.6312 61.837L52.2045 61.6946C52.2045 61.6946 51.3748 61.2438 50.474 62.715C50.474 62.715 49.6443 63.8065 48.9686 63.5454C48.293 63.2844 49.0872 61.4692 49.0872 61.4692H49.0753Z" fill="white"/>
<path d="M51.6357 62.4662C52.5366 63.2611 52.9988 63.8068 53.5678 64.7322C53.9589 64.3645 54.4331 64.2577 54.7175 64.1746C54.1012 63.3916 53.5915 62.9052 52.7381 62.217C52.3706 62.1696 51.9439 62.2882 51.6357 62.4662Z" fill="white"/>
<path d="M34.2603 61.3861C36.7375 60.437 40.1275 59.6065 44.442 59.6302C46.2556 59.6302 47.7727 59.998 49.0529 60.5794C49.1951 60.3658 49.3374 60.2116 49.444 60.0929C44.2168 57.8625 38.314 59.5472 34.2603 61.3861Z" fill="white"/>
<path d="M18.0947 95.0801C17.9525 95.2699 17.6799 95.7801 17.9406 96.5038C18.237 97.0139 18.6518 97.619 19.043 98.1173C19.0785 97.6427 19.3393 97.358 19.5289 97.2156C18.9363 96.5394 18.4622 95.7919 18.0947 95.0919V95.0801Z" fill="white"/>
<path d="M17.4646 94.4396C19.0055 92.6719 18.235 91.4499 16.6823 92.1143C16.6823 92.1143 14.4658 93.2058 15.0703 95.3057C15.0703 95.3057 15.1058 96.4684 17.2512 96.4684C16.9194 95.46 17.2987 94.7007 17.4765 94.4278L17.4646 94.4396Z" fill="white"/>
<path d="M21.9804 99.3403C21.7908 99.4946 21.5182 99.8979 21.9804 100.693C22.7983 101.167 23.6873 101.713 24.7896 102.14C24.7896 101.701 24.9082 101.286 25.0385 100.942C23.8651 100.491 22.8457 99.9573 21.9686 99.3403H21.9804Z" fill="white"/>
<path d="M33.0174 102.033C31.7491 102.175 30.4216 102.14 28.9873 101.938C28.608 102.294 28.5843 102.685 28.7503 103.113C30.2912 103.35 31.9506 103.385 33.7523 103.101C33.2781 102.768 33.0885 102.341 33.0174 102.045V102.033Z" fill="white"/>
<path d="M41.9405 98.8423C40.4352 99.8507 38.7876 100.693 37.0215 101.263C37.2111 101.559 37.4245 102.022 37.3178 102.378C39.0839 101.808 40.9448 100.942 42.8769 99.6965C42.4739 99.4355 42.1657 99.127 41.9287 98.8423H41.9405Z" fill="white"/>
<path d="M49.5858 91.5449C48.3294 93.1703 46.8359 94.8313 45.1172 96.3143C45.3424 96.5397 45.7098 96.955 45.8284 97.4058C46.6225 96.7889 47.4285 96.1245 48.2345 95.377C48.2345 95.377 49.1235 94.6296 50.4274 93.0754C50.3918 92.1381 49.9414 91.7229 49.5858 91.5449Z" fill="white"/>
<path d="M54.2335 84.0836C53.8305 84.9734 53.0956 86.5158 52.0288 88.2835C52.337 88.4022 52.7993 88.7107 52.9771 89.4462C53.4156 88.7344 53.8542 87.9395 54.3046 87.0615H54.2927C54.7906 86.0887 55.0395 85.448 55.1817 84.9497C55.0158 84.2972 54.3994 84.1311 54.2335 84.0718V84.0836Z" fill="white"/>
<path d="M56.2233 75.1143C56.2233 76.443 56.0929 77.9972 55.7373 79.6582C55.9625 79.6938 56.4366 79.8125 56.9463 80.2752C57.2545 78.9938 57.5508 77.499 57.6931 75.9092C57.2189 75.2448 56.5552 75.1261 56.2351 75.1143H56.2233Z" fill="white"/>
<path d="M57.6349 71.3754C57.5994 71.0906 57.5638 70.8178 57.5045 70.533C57.3623 69.6076 56.7578 68.0297 56.6985 67.8043C56.3192 67.2229 55.6436 67.6263 55.1221 67.7687C55.7503 69.489 55.7977 70.7347 55.8807 71.1737C56.3429 71.0432 56.983 71.0076 57.6231 71.3872L57.6349 71.3754Z" fill="white"/>
<path d="M25.5942 75.0547C25.5942 75.0547 20.9123 81.2478 22.7613 86.7409C24.6223 92.234 31.0703 93.8238 38.4074 88.2477C45.7444 82.6715 47.1668 74.0819 44.2391 69.8345C41.3232 65.5872 31.5089 66.56 25.5824 75.0547H25.5942Z" fill="white"/>
<path d="M53.2125 75.1022C52.9873 74.9361 52.7621 74.6276 52.7146 74.0225C52.525 72.9073 53.4021 72.2429 54.0185 71.9226C53.8525 70.6413 53.5562 69.6684 53.1651 68.5532C51.9086 69.3362 50.3914 67.5566 52.1101 65.9905C51.5768 65.0651 51.1856 64.3889 50.4626 63.7482C48.8268 65.1482 48.1631 63.677 48.1512 63.5109C48.1038 63.1431 48.1512 62.6567 48.2935 62.4075C43.9315 60.6279 36.5708 61.3991 31.474 64.2346C30.6205 64.7329 30.0397 65.1244 29.8382 65.2549C29.8145 65.2787 29.779 65.2905 29.7553 65.3143C29.7553 65.3143 23.3546 68.7549 18.566 80.18C18.566 80.18 16.7762 85.7087 18.3289 91.0357C18.6134 90.9527 18.9571 90.9527 19.3601 91.1662C20.2254 91.6408 19.4312 93.0052 19.2297 93.3137C19.7513 94.3458 20.4388 95.3306 21.3396 96.2204C21.3751 96.2085 21.4226 96.1966 21.4581 96.1729C22.2167 95.7221 23.2242 96.0068 23.1531 96.8966C23.1294 97.1695 23.0583 97.4068 22.9753 97.5847C23.4613 97.9288 23.9947 98.2491 24.5755 98.5457C25.0022 98.7593 25.4289 98.961 25.8437 99.1271C26.0097 98.8067 26.9224 97.217 28.487 97.9169C28.57 97.9525 28.6529 97.9881 28.7478 98.0356C28.8781 98.0949 28.973 98.178 29.0441 98.2729C29.0441 98.2729 29.4826 98.7118 29.2456 100.041C30.5139 100.219 31.7584 100.207 32.9911 100.041C32.8371 99.305 32.8845 98.2491 34.1409 97.7271C34.1409 97.7271 34.2476 97.7034 34.378 97.6915C34.5202 97.6678 34.6624 97.6559 34.8284 97.6915C34.8284 97.6915 35.6107 97.6796 36.31 99.2101V99.2339C37.9339 98.6644 39.4985 97.8458 40.9801 96.8729C40.7312 96.1729 40.1741 94.2509 41.2883 93.4086C42.6395 92.3764 43.5996 93.7882 43.8486 94.7018C45.5435 93.2425 46.6459 92.0086 47.9616 90.3713C46.5985 89.7069 46.9896 88.2951 46.9896 88.2951C47.3808 87.2036 48.9572 87.3341 49.9647 87.7138C51.2093 85.9342 51.9798 84.6647 52.5606 83.3003C51.7308 83.1935 49.3247 82.5766 50.3559 80.9987C51.316 79.5275 53.0465 79.2665 53.734 79.3021C54.0185 77.9614 54.1489 76.8343 54.1844 75.5174C53.9474 75.5056 53.5444 75.4225 53.2125 75.0903V75.1022ZM42.5921 87.607C35.5158 96.517 21.7781 97.0034 20.2372 87.607C18.6964 78.2106 26.1993 71.0565 26.1993 71.0565C37.9694 59.6907 47.0844 65.5159 47.8549 70.2853C48.6253 75.0547 49.6803 78.697 42.604 87.607H42.5921Z" fill="white"/>
</svg>
