<svg width="90" height="128" viewBox="0 0 90 128" fill="none" xmlns="http://www.w3.org/2000/svg">
<path d="M63.8145 96.9239L21.5156 96.4805L21.4967 98.2932L63.7956 98.7366L63.8145 96.9239Z" fill="#BA9D36"/>
<path d="M66.6852 101.613L18.4316 101.107L18.4127 102.92L66.6662 103.426L66.6852 101.613Z" fill="#BA9D36"/>
<path d="M83.5185 119.903C84.2392 119.211 85.121 118.859 86.1736 118.859C87.2261 118.859 88.0985 119.211 88.8192 119.903C89.5399 120.606 89.9002 121.469 89.9002 122.485C89.9002 123.501 89.5399 124.345 88.8192 125.038C88.108 125.741 87.2261 126.092 86.1736 126.092C85.121 126.092 84.2392 125.741 83.5185 125.038C82.7978 124.345 82.4375 123.491 82.4375 122.485C82.4375 121.479 82.7978 120.606 83.5185 119.903ZM84.1728 124.459C84.7133 124.991 85.3771 125.247 86.1736 125.247C86.9701 125.247 87.6434 124.981 88.1839 124.459C88.7244 123.928 88.9899 123.273 88.9899 122.485C88.9899 121.697 88.7244 121.023 88.1839 120.501C87.6434 119.979 86.9796 119.714 86.1736 119.714C85.3676 119.714 84.7038 119.979 84.1633 120.501C83.6228 121.033 83.3573 121.688 83.3573 122.485C83.3573 123.282 83.6323 123.928 84.1728 124.459ZM87.7382 123.377L87.7666 123.852C87.7666 124.051 87.8235 124.193 87.9089 124.25H86.7805C86.7236 124.146 86.6951 124.013 86.6856 123.852L86.6572 123.463C86.6477 123.301 86.6098 123.197 86.5529 123.14C86.496 123.083 86.3917 123.055 86.24 123.055H85.7848V124.25H84.7038V120.663H86.4675C86.8943 120.663 87.2261 120.758 87.4632 120.947C87.7003 121.137 87.814 121.403 87.814 121.745C87.814 122.086 87.6528 122.362 87.3304 122.551C87.5865 122.694 87.7287 122.96 87.7477 123.368L87.7382 123.377ZM85.7848 121.545V122.238H86.3158C86.5624 122.238 86.6951 122.124 86.6951 121.887C86.6951 121.65 86.5718 121.536 86.3158 121.536H85.7848V121.545Z" fill="#BA9D36"/>
<path d="M43.8535 3.10324C43.8535 3.10324 43.8061 3.10324 43.7871 3.09375C43.8156 3.09375 43.8345 3.09375 43.8535 3.10324Z" fill="#BA9D36"/>
<path d="M43.9866 3.13254C43.9866 3.13254 43.9487 3.12305 43.9297 3.12305C43.9487 3.12305 43.9676 3.12305 43.9866 3.13254Z" fill="#BA9D36"/>
<path d="M57.0145 76.2336C57.0145 76.2336 55.9904 62.6894 47.2192 54.8496C47.2192 54.8496 50.5949 60.0888 46.1571 69.4568C46.1571 69.4568 43.8814 74.5346 38.2867 79.2803C34.9489 81.8619 28.9465 85.051 22.707 84.5005C22.707 84.5005 29.3542 88.5343 39.8418 88.7146L41.4728 88.8096C41.4728 88.8096 41.5771 91.7898 42.6107 93.8494L61.2627 94.0488C63.9842 91.619 67.872 78.5779 57.024 76.243L57.0145 76.2336Z" fill="#BA9D36"/>
<path d="M51.8196 45.8343C51.7817 42.5218 48.5103 42.6831 48.5103 42.6831L47.9982 40.7754C46.0164 42.3794 44.6414 43.0248 42.8303 43.1767L43.2475 45.1224C42.707 45.2838 42.6406 45.7963 42.6406 45.7963C44.1294 45.7583 44.0725 47.9318 44.0725 47.9318L45.3811 49.0898C48.1973 48.9284 47.4482 52.3453 47.4482 52.3453C49.5533 53.3799 52.161 57.4896 52.161 57.4896C52.161 57.4896 51.8481 49.1467 51.8102 45.8343H51.8196Z" fill="#BA9D36"/>
<path d="M46.6048 12.083C44.7083 3.80661 41.5412 1.94631 41.5412 1.94631C36.8853 -1.63191 30.5131 1.17752 30.5131 1.17752C28.4364 1.81344 27.2891 3.46493 27.2891 3.46493C29.6217 1.31989 34.7612 1.44327 34.7612 1.44327C40.2326 2.25953 42.3946 8.31499 42.3946 8.31499L46.1876 20.2551L49.3547 30.8854C50.1702 34.3592 49.8004 36.4283 48.8711 37.8045L51.2417 35.5741C52.996 32.6412 51.5736 28.7593 51.5736 28.7593L46.6048 12.0641V12.083Z" fill="#BA9D36"/>
<path d="M31.0045 8.49492C31.0045 8.49492 35.7172 7.41291 38.7801 5.5716C38.562 5.18245 38.3818 4.99263 38.1353 4.66992C37.5663 4.97364 35.9259 5.98922 32.332 7.15665C29.0226 8.34306 24.49 9.10237 22.9349 8.90305C22.9349 8.90305 22.4418 9.55795 22.6694 9.74778C23.3806 10.3552 30.995 8.49492 30.995 8.49492H31.0045Z" fill="#BA9D36"/>
<path d="M30.7593 6.22698C34.3627 5.52463 36.4109 4.35719 37.0557 4.06296C34.6092 2.2786 32.03 2.63927 32.03 2.63927C32.03 2.63927 29.043 3.27518 27.9051 3.45552C27.7344 3.48399 27.5543 3.53145 27.3741 3.5884C24.8897 4.75583 24.0078 7.47035 24.0078 7.47035L24.8518 7.37543L30.7593 6.22698Z" fill="#BA9D36"/>
<path d="M43.1605 17.3786L42.8096 16.2871C35.9728 21.0707 25.874 21.2511 25.1059 21.1656C24.3378 21.0707 24.5939 20.4443 24.5939 20.4443L24.5654 20.0836C24.1102 20.2924 24.1577 20.9284 24.1577 20.9284L24.4611 21.8016C26.2722 22.7032 34.8349 22.2856 43.17 17.3881L43.1605 17.3786Z" fill="#BA9D36"/>
<path d="M23.3626 14.3518C25.3918 14.4467 28.9667 13.6305 28.9667 13.6305C33.8502 12.8142 38.9707 10.5932 40.6112 9.84342L40.2793 8.81836C36.5432 11.0488 29.1753 12.5959 29.1753 12.5959C29.1753 12.5959 24.5953 13.4596 23.6755 13.4027C22.7557 13.3457 23.2583 12.6149 23.2583 12.6149L23.1161 12.2542C22.1963 12.8806 22.3954 13.7633 22.6324 14.0481C22.8695 14.3328 23.3721 14.3518 23.3721 14.3518H23.3626Z" fill="#BA9D36"/>
<path d="M42.4686 15.2896L42.1082 14.1602C39.4247 16.0394 28.4156 19.0956 25.1726 18.9153C23.7407 18.8394 23.7597 18.2035 23.7597 18.2035L23.7312 17.9472L23.6554 17.9946C22.9821 18.2224 23.7502 19.5892 23.7502 19.5892L24.3571 19.9214C26.1303 20.5383 35.3757 19.4753 42.4781 15.2896H42.4686Z" fill="#BA9D36"/>
<path d="M31.3186 16.6092C34.2202 16.0018 40.545 13.6004 41.7303 12.993L41.0191 10.791C37.2356 12.7557 30.6074 14.5401 30.6074 14.5401C27.2885 15.4038 23.8179 15.6221 23.2869 15.4702C22.7559 15.3184 23.0499 14.597 23.0499 14.597L23.0024 14.2933C22.4619 15.0147 22.6421 15.5177 22.6421 15.5177L23.1826 17.2356C24.9463 18.1848 27.8385 17.3305 31.3186 16.5997V16.6092Z" fill="#BA9D36"/>
<path d="M29.4038 24.2987C29.5744 24.2607 29.7451 24.2418 29.9253 24.2418C31.3666 24.0614 32.5804 23.8241 32.5804 23.8241C38.5448 22.4194 42.9447 20.2174 43.9309 19.6575L43.5137 18.3477C34.4864 23.3211 28.209 22.9889 26.284 23.0933C25.4117 23.1408 25.4211 22.4954 25.4211 22.4954L25.3073 22.0967C24.7953 22.3055 24.8712 22.9415 24.8712 22.9415L25.1082 23.7862C25.3263 24.555 27.4599 24.5075 29.3848 24.2987H29.4038Z" fill="#BA9D36"/>
<path d="M39.955 7.73593V7.71695C39.8033 7.41323 39.6515 7.119 39.4998 6.84375C33.2509 10.2796 23.8348 11.8552 23.0952 11.2382C22.8581 11.0389 23.3702 10.3366 23.3702 10.3366L23.1426 10.3176C23.0478 10.3935 22.9434 10.4505 22.5926 10.7826C22.1374 11.2192 22.7159 12.0545 22.7159 12.0545C25.4468 12.9751 32.9474 11.2952 39.955 7.72644V7.73593Z" fill="#BA9D36"/>
<path d="M44.6494 22.039L44.2891 20.957C40.6668 23.2634 35.0722 24.6966 32.9102 25.1997L33.2895 26.2532C39.9272 24.9244 43.7296 22.6465 44.6494 22.039Z" fill="#BA9D36"/>
<path d="M46.1297 26.4714L45.8262 25.5508L43.541 26.7752C40.8195 28.1514 36.486 29.1765 34.5137 29.6036L34.9214 30.7141C42.0807 28.9677 45.2668 27.0694 46.1392 26.4809L46.1297 26.4714Z" fill="#BA9D36"/>
<path d="M38.8103 27.1934C42.3093 26.2158 44.7747 24.7351 45.41 24.327L45.0402 23.207C44.6894 23.4348 43.6084 24.0897 40.8964 25.2192C38.412 26.2537 35.2828 27.0225 33.6992 27.3737L34.088 28.4367C34.9888 28.2184 36.5155 27.8293 38.8103 27.1839V27.1934Z" fill="#BA9D36"/>
<path d="M45.2188 4.09977C45.361 4.31807 45.4843 4.51739 45.5886 4.69772C47.0678 3.86249 47.1627 3.78656 46.992 3.14115C46.8118 2.47676 45.7782 2.65709 45.7782 2.65709L45.9679 2.83743C47.523 2.83743 45.8351 3.78656 45.2282 4.09977H45.2188Z" fill="#BA9D36"/>
<path d="M47.4375 4.60317C47.7694 4.84994 46.6125 5.60924 46.1953 5.86551L46.5936 6.87159L47.7599 6.07432C48.7745 5.45738 48.1582 4.65062 48.1582 4.65062C47.9211 4.27097 47.0677 4.18555 47.0677 4.18555L47.1815 4.33741L47.447 4.61266L47.4375 4.60317Z" fill="#BA9D36"/>
<path d="M47.0859 8.11447L47.6928 10.231L49.0393 9.41478C49.9022 8.99717 49.741 8.12396 49.741 8.12396C49.741 8.12396 49.3712 7.04195 49.2385 6.70976C49.1057 6.37756 48.5936 6.57688 48.5936 6.57688C49.5798 6.84264 47.7592 7.79177 47.0859 8.11447Z" fill="#BA9D36"/>
<path d="M50.4825 12.0918L50.5584 12.3101C51.5635 12.5379 49.411 13.6768 48.7852 13.9996L49.0127 14.8063C49.4489 14.5406 50.7765 13.7148 50.7765 13.7148C51.4687 13.2782 51.3454 12.9555 51.3454 12.9555L51.1842 12.4335C51.004 12.0538 50.473 12.1013 50.473 12.1013L50.4825 12.0918Z" fill="#BA9D36"/>
<path d="M51.2308 14.3689C51.2308 14.3689 51.6765 14.2265 51.4678 14.6821C51.2972 15.0618 49.8843 15.9065 49.4102 16.1912L49.6567 17.0644L51.3635 15.8495C51.9325 15.4414 51.9325 15.0238 51.9325 15.0238L51.7523 14.3879C51.6196 14.0367 51.1834 14.236 51.1834 14.236L51.2308 14.3784V14.3689Z" fill="#BA9D36"/>
<path d="M51.7822 16.41L51.877 16.429C52.7399 16.8371 50.7012 18.0046 50.0469 18.3557L50.3314 19.3428C50.815 19.0676 52.4175 18.1185 52.5218 17.4541C52.6451 16.6663 52.4459 16.5334 52.4459 16.5334C52.2278 16.1727 51.7063 16.1348 51.7063 16.1348L51.7916 16.41H51.7822Z" fill="#BA9D36"/>
<path d="M52.2828 18.4707L52.3207 18.6036H52.3776C53.2784 18.6985 52.6147 19.2964 52.6147 19.2964L50.6992 20.6537L50.9647 21.5744C51.2302 21.394 52.0362 20.834 52.5673 20.4449C52.5862 20.4354 52.6052 20.4164 52.6147 20.4069C53.25 19.9419 53.2216 19.4103 53.2216 19.4103L53.1172 18.7649C52.9845 18.4043 52.2733 18.4802 52.2733 18.4802L52.2828 18.4707Z" fill="#BA9D36"/>
<path d="M52.7488 20.8338L52.8342 20.8718C53.5264 21.1565 52.9764 21.6785 52.9764 21.6785L51.3359 22.8365L51.6204 23.8331C52.2178 23.4629 52.654 23.1497 52.9669 22.8839C52.9005 22.8649 52.8531 22.8649 52.8531 22.8649L53.3178 22.5707C53.9341 21.9633 53.8203 21.707 53.8203 21.707L53.7919 21.0996C53.6591 20.3687 52.8152 20.4352 52.8152 20.4352H52.5781C52.5781 20.4352 52.6161 20.5111 52.6161 20.5206L52.7488 20.8338Z" fill="#BA9D36"/>
<path d="M49.7336 9.71908H49.8285C50.5681 9.93738 49.7905 10.4974 49.7905 10.4974L48.0742 11.494L48.3587 12.4906L49.9707 11.418C50.6345 10.915 50.6155 10.412 50.6155 10.412L50.3974 9.80451C50.0371 9.38689 49.6483 9.52926 49.6483 9.52926L49.7431 9.70959L49.7336 9.71908Z" fill="#BA9D36"/>
<path d="M44.0156 2.46763C44.1958 2.67644 44.3665 2.88525 44.5182 3.09406C46.2914 1.94561 45.2104 1.49952 44.5846 1.34766C45.6751 1.6229 44.4803 2.24933 44.0156 2.46763Z" fill="#BA9D36"/>
<path d="M43.5872 0.768188L43.3691 0.635309C43.3217 0.597344 43.2648 0.56887 43.2079 0.530905L43.1415 0.49294C42.0984 -0.0860311 40.7519 -0.0290832 40.0312 0.0468474C40.8847 0.246165 42.0036 0.625818 42.9234 1.37563L43.5777 0.768188H43.5872Z" fill="#BA9D36"/>
<path d="M55.0235 28.0178L54.3502 23.3575C54.3502 23.3575 54.1985 22.6457 53.3925 22.5508C53.3925 22.5508 53.1554 22.7691 53.0132 22.883C53.3546 22.9589 54.2554 23.2626 53.3166 24.1643L51.9512 24.9616L52.1693 25.7209C52.1693 25.7209 54.3976 32.5641 52.6813 34.5763C52.6813 34.5763 55.1657 32.175 55.033 28.0178H55.0235Z" fill="#BA9D36"/>
<path d="M25.999 25.6653C25.999 25.1528 26.0559 25.0484 26.0559 25.0484L25.9801 24.7637L25.8853 24.9155C25.8853 24.9155 25.3163 25.6274 25.9421 26.4247C26.2835 26.8613 27.0042 26.9562 27.5921 26.9562L27.2507 25.9691C26.6533 25.9881 25.9801 25.9501 25.9801 25.6653H25.999Z" fill="#BA9D36"/>
<path d="M26.7655 27.2399L26.7181 26.8887L26.6612 26.9836C26.6612 26.9836 26.462 27.3348 26.5568 27.7809C26.6517 28.2364 26.9361 28.5686 26.9361 28.5686C26.9361 28.5686 27.268 29.0527 28.3396 29.0717L27.9982 28.0846C27.3439 28.0466 26.5284 27.8853 26.7655 27.2399Z" fill="#BA9D36"/>
<path d="M27.6657 29.6607L27.5709 29.1387L27.5235 29.2526C27.5235 29.2526 27.239 29.8126 27.4192 30.3631C27.5709 30.8186 28.064 31.3122 29.0976 31.2742L28.7562 30.2871C28.2062 30.2871 27.5045 30.2017 27.6657 29.6607Z" fill="#BA9D36"/>
<path d="M46.4619 27.4672C40.2983 31.6434 34.3054 32.042 34.0873 32.061C33.5847 30.6753 32.371 27.2869 32.1339 26.2998C31.9158 25.3886 30.9865 24.9141 30.0952 24.9141C29.9245 24.933 29.7443 24.952 29.5642 24.9805C29.4124 25.0185 29.2702 25.0659 29.1374 25.1324C28.0944 25.6544 28.4926 26.632 28.4926 26.632L30.2753 32.3268L28.5969 32.4502C28.5969 32.4502 29.128 34.6711 29.7538 35.5064C29.7538 35.5159 29.7728 35.5254 29.7917 35.5443C30.8443 37.5945 32.9873 40.1761 37.1501 40.7076C43.8447 41.5618 45.7697 39.5782 47.5144 37.4141C48.9178 34.804 46.4714 27.4767 46.4714 27.4767L46.4619 27.4672Z" fill="#BA9D36"/>
<path d="M13.5951 106.047L0.101562 125.95L44.3182 127.839L47.2768 106.55L13.5951 106.047Z" fill="#BA9D36"/>
<path d="M81.9348 126.681L70.8403 106.891L49.4289 106.578L46.4609 127.924L48.31 128L81.9348 126.681Z" fill="#BA9D36"/>
<path d="M28.1413 47.6183C28.1413 47.6183 28.0465 46.4319 28.5775 46.2421C29.1085 46.0522 29.4784 46.0997 30.237 46.9444L28.1508 47.6183H28.1413Z" fill="#BA9D36"/>
<path d="M36.7309 46.3659C36.7309 46.3659 36.7309 45.1606 35.6499 44.8284C34.5879 44.5056 33.9336 45.5402 33.9336 46.2331V46.347H33.9431C33.9431 46.347 35.849 46.29 36.7025 46.4988H36.7404V46.3659H36.7309Z" fill="#BA9D36"/>
<path d="M15.9472 55.7423C15.9472 55.7423 15.7101 56.0176 15.9472 56.3118C16.1842 56.6061 16.3359 56.701 16.3359 56.701L16.4497 56.8433L17.4833 55.5335L17.6066 55.3817L16.9523 54.9451C16.9523 54.9451 16.6109 54.6414 15.9472 55.7329V55.7423Z" fill="#BA9D36"/>
<path d="M21.741 51.3107C21.741 51.3107 21.2954 50.5988 21.741 50.2476C22.1867 49.8965 22.5091 49.9249 22.5091 49.9249C22.5091 49.9249 22.822 49.7446 23.135 50.3615L21.741 51.3107Z" fill="#BA9D36"/>
<path d="M13.7472 61.5803L13.6809 61.5329C13.6145 61.4759 13.2826 61.2481 12.8085 61.4474C12.268 61.6752 12.249 62.4915 12.249 62.4915C12.249 62.4915 12.1352 62.8711 12.8369 63.3172L12.8938 63.3552L12.9223 63.3742C12.9223 63.3742 13.6998 61.6657 13.7378 61.6088V61.5898L13.7472 61.5803Z" fill="#BA9D36"/>
<path d="M12.1246 67.0078H12.0013C11.1573 67.0268 10.9867 67.4634 10.9867 67.4634C10.9867 67.4634 10.9677 68.1942 10.9961 68.6498C11.0246 69.1054 11.9349 69.1718 11.9349 69.1718H12.0202C11.9349 68.422 12.134 67.0268 12.134 67.0268V67.0078H12.1246Z" fill="#BA9D36"/>
<path d="M22.9453 50.9205C22.9453 50.9205 22.9927 50.892 23.0117 50.873C22.9643 50.9015 22.9453 50.9205 22.9453 50.9205Z" fill="#BA9D36"/>
<path d="M12.9328 72.7694C12.544 71.5545 12.4966 70.5864 12.5155 70.2637C12.5155 70.2637 12.2311 71.3931 12.5345 73.0162C12.5629 72.9877 12.7052 72.8643 12.9328 72.7694Z" fill="#BA9D36"/>
<path d="M15.9178 77.5818C15.9178 77.5818 14.742 77.9994 14.9506 79.8122C15.1592 81.6251 16.9229 80.5525 16.9229 80.5525C16.9229 80.5525 16.079 80.0875 16.6954 78.8441C17.0367 78.1607 17.2359 77.335 15.9083 77.5818H15.9178Z" fill="#BA9D36"/>
<path d="M20.0158 81.891C20.433 83.4856 21.8554 82.3276 21.6752 82.1852C21.495 82.0429 21.5804 81.7107 21.8838 81.0178C22.1872 80.3249 22.2441 79.5751 21.8269 79.3284C20.5752 78.588 19.5985 80.2965 20.0158 81.891Z" fill="#BA9D36"/>
<path d="M28.3214 80.6758C28.6438 81.0554 28.8524 81.5774 28.3688 81.9096C27.7809 82.3178 26.7947 81.8717 26.4344 81.1598C26.093 80.4954 25.8844 79.4134 26.6335 79.0433C27.8947 78.4168 27.999 80.2866 28.3214 80.6758Z" fill="#BA9D36"/>
<path d="M34.6653 76.6705C34.7222 77.1071 36.5997 78.2935 34.7412 78.8725C34.6938 78.8915 34.4946 78.8725 34.3713 78.7966C34.0015 78.5688 33.2335 78.0467 32.9205 77.3539C31.4602 74.4875 34.0869 74.1553 34.6653 76.661V76.6705Z" fill="#BA9D36"/>
<path d="M38.0029 70.5484C38.0029 70.5484 37.7279 70.8237 38.0313 71.3362C38.3348 71.8487 39.2925 71.9531 39.9468 72.3423C40.5442 72.7029 40.2502 74.0317 40.6674 73.4907C41.0847 72.9497 41.4545 72.8738 41.4071 71.6969C41.4071 71.6969 41.3502 71.004 40.3545 70.6433C39.3589 70.2827 38.5434 69.8271 38.0029 70.5484Z" fill="#BA9D36"/>
<path d="M41.4062 63.981C41.4062 63.981 43.1794 63.0129 44.725 64.1614C46.2612 65.3098 44.8768 66.9898 44.0613 66.3918C43.7958 66.1925 43.132 65.3668 41.5863 65.4617C41.5863 65.4617 39.9459 64.9776 41.4062 63.981Z" fill="#BA9D36"/>
<path d="M43.0673 57.9437C43.0673 57.9437 42.7923 58.5511 43.0958 58.9687C43.3992 59.3864 43.9682 59.1206 43.9682 59.1206C43.9682 59.1206 45.3336 58.6555 45.7224 59.6521C45.8647 59.7755 46.2819 60.3545 46.5284 59.244C47.0974 56.6339 43.6363 56.4725 43.0673 57.9437Z" fill="#BA9D36"/>
<path d="M43.3144 51.406C43.3144 51.406 39.9386 53.1998 41.6929 53.9876C42.2903 54.2629 43.9023 52.9815 43.9023 52.9815C43.9023 52.9815 44.9833 52.7442 45.154 53.5795L45.2678 53.4751C45.2678 53.4751 45.5523 50.5518 43.3144 51.4155V51.406Z" fill="#BA9D36"/>
<path d="M38.7603 48.7754C38.7603 48.7754 39.4525 47.0005 40.5714 47.1808C41.6903 47.3612 41.5481 47.6554 41.605 49.0696L41.2636 48.9557C41.2636 48.9557 40.5999 48.595 39.8792 49.772C39.8792 49.772 39.2154 50.6452 38.6749 50.4364C38.1344 50.2276 38.7697 48.7754 38.7697 48.7754H38.7603Z" fill="#BA9D36"/>
<path d="M40.8086 49.573C41.5293 50.2089 41.8991 50.6455 42.3542 51.3858C42.6672 51.0916 43.0465 51.0061 43.274 50.9397C42.7809 50.3133 42.3732 49.9241 41.6905 49.3736C41.3965 49.3357 41.0551 49.4306 40.8086 49.573Z" fill="#BA9D36"/>
<path d="M26.9082 48.7089C28.89 47.9496 31.602 47.2852 35.0536 47.3042C36.5044 47.3042 37.7182 47.5984 38.7423 48.0635C38.8561 47.8927 38.9699 47.7693 39.0552 47.6744C34.8735 45.89 30.1512 47.2378 26.9082 48.7089Z" fill="#BA9D36"/>
<path d="M13.9758 75.6641C13.862 75.8159 13.6439 76.224 13.8525 76.803C14.0896 77.2111 14.4215 77.6952 14.7344 78.0938C14.7628 77.7142 14.9714 77.4864 15.1232 77.3725C14.649 76.8315 14.2697 76.2335 13.9758 75.6736V75.6641Z" fill="#BA9D36"/>
<path d="M13.4717 75.1517C14.7044 73.7375 14.088 72.7599 12.8458 73.2914C12.8458 73.2914 11.0726 74.1646 11.5562 75.8446C11.5562 75.8446 11.5847 76.7747 13.301 76.7747C13.0355 75.968 13.3389 75.3605 13.4812 75.1422L13.4717 75.1517Z" fill="#BA9D36"/>
<path d="M17.0844 79.0723C16.9326 79.1957 16.7145 79.5184 17.0844 80.1543C17.7386 80.5339 18.4498 80.9705 19.3317 81.3122C19.3317 80.961 19.4265 80.6288 19.5308 80.3536C18.5921 79.9929 17.7766 79.5658 17.0749 79.0723H17.0844Z" fill="#BA9D36"/>
<path d="M25.9139 81.2263C24.8993 81.3402 23.8372 81.3117 22.6899 81.1504C22.3864 81.4351 22.3675 81.7483 22.5002 82.09C23.7329 82.2799 25.0605 82.3083 26.5018 82.0805C26.1225 81.8148 25.9708 81.4731 25.9139 81.2358V81.2263Z" fill="#BA9D36"/>
<path d="M33.0524 78.6738C31.8481 79.4806 30.5301 80.1545 29.1172 80.6101C29.2689 80.8473 29.4396 81.2175 29.3542 81.5022C30.7671 81.0467 32.2559 80.3538 33.8015 79.3572C33.4791 79.1484 33.2326 78.9016 33.0429 78.6738H33.0524Z" fill="#BA9D36"/>
<path d="M39.1686 72.8359C38.1635 74.1362 36.9687 75.465 35.5938 76.6515C35.7739 76.8318 36.0679 77.164 36.1627 77.5247C36.798 77.0311 37.4428 76.4996 38.0876 75.9016C38.0876 75.9016 38.7988 75.3037 39.8419 74.0603C39.8134 73.3105 39.4531 72.9783 39.1686 72.8359Z" fill="#BA9D36"/>
<path d="M42.8868 66.8669C42.5644 67.5788 41.9765 68.8126 41.123 70.2268C41.3696 70.3217 41.7394 70.5685 41.8816 71.157C42.2325 70.5875 42.5833 69.9516 42.9437 69.2492H42.9342C43.3325 68.4709 43.5316 67.9584 43.6454 67.5598C43.5126 67.0378 43.0195 66.9049 42.8868 66.8574V66.8669Z" fill="#BA9D36"/>
<path d="M44.4786 59.6914C44.4786 60.7544 44.3743 61.9978 44.0898 63.3266C44.27 63.3551 44.6493 63.45 45.0571 63.8201C45.3036 62.7951 45.5407 61.5992 45.6545 60.3273C45.2752 59.7958 44.7441 59.7009 44.4881 59.6914H44.4786Z" fill="#BA9D36"/>
<path d="M45.6079 56.7003C45.5795 56.4725 45.551 56.2542 45.5036 56.0264C45.3898 55.2861 44.9062 54.0237 44.8588 53.8434C44.5554 53.3783 44.0149 53.701 43.5977 53.8149C44.1002 55.1912 44.1382 56.1878 44.2045 56.5389C44.5743 56.4345 45.0864 56.4061 45.5985 56.7098L45.6079 56.7003Z" fill="#BA9D36"/>
<path d="M19.9754 59.6438C19.9754 59.6438 16.2298 64.5983 17.7091 68.9928C19.1978 73.3872 24.3563 74.6591 30.2259 70.1981C36.0956 65.7372 37.2334 58.8655 34.8913 55.4676C32.5586 52.0697 24.7071 52.848 19.9659 59.6438H19.9754Z" fill="#BA9D36"/>
<path d="M42.07 59.6817C41.8898 59.5489 41.7097 59.3021 41.6717 58.818C41.52 57.9259 42.2217 57.3943 42.7148 57.1381C42.582 56.113 42.345 55.3347 42.0321 54.4425C41.0269 55.069 39.8132 53.6453 41.1881 52.3924C40.7614 51.6521 40.4485 51.1111 39.8701 50.5986C38.5615 51.7185 38.0305 50.5416 38.021 50.4087C37.983 50.1145 38.021 49.7254 38.1348 49.526C34.6452 48.1023 28.7566 48.7193 24.6792 50.9877C23.9964 51.3863 23.5318 51.6995 23.3706 51.804C23.3516 51.8229 23.3232 51.8324 23.3042 51.8514C23.3042 51.8514 18.1837 54.6039 14.3528 63.744C14.3528 63.744 12.9209 68.167 14.1631 72.4286C14.3907 72.3621 14.6657 72.3621 14.9881 72.533C15.6803 72.9126 15.045 74.0042 14.8838 74.2509C15.301 75.0767 15.851 75.8644 16.5717 76.5763C16.6001 76.5668 16.638 76.5573 16.6665 76.5383C17.2734 76.1777 18.0794 76.4055 18.0225 77.1173C18.0035 77.3356 17.9466 77.5254 17.8802 77.6678C18.269 77.943 18.6957 78.1993 19.1604 78.4366C19.5017 78.6074 19.8431 78.7688 20.175 78.9017C20.3078 78.6454 21.0379 77.3736 22.2896 77.9336C22.356 77.962 22.4223 77.9905 22.4982 78.0285C22.6025 78.0759 22.6784 78.1424 22.7353 78.2183C22.7353 78.2183 23.0861 78.5695 22.8965 79.6325C23.9111 79.7749 24.9067 79.7654 25.8929 79.6325C25.7696 79.044 25.8076 78.1993 26.8127 77.7817C26.8127 77.7817 26.8981 77.7627 27.0024 77.7532C27.1162 77.7342 27.2299 77.7247 27.3627 77.7532C27.3627 77.7532 27.9885 77.7437 28.548 78.9681V78.9871C29.8471 78.5315 31.0988 77.8766 32.2841 77.0983C32.085 76.5383 31.6393 75.0007 32.5306 74.3269C33.6116 73.5011 34.3797 74.6306 34.5788 75.3614C35.9348 74.194 36.8167 73.2069 37.8693 71.8971C36.7788 71.3656 37.0917 70.2361 37.0917 70.2361C37.4046 69.3629 38.6658 69.4673 39.4718 69.771C40.4675 68.3473 41.0838 67.3318 41.5485 66.2402C40.8847 66.1548 38.9597 65.6613 39.7847 64.3989C40.5528 63.222 41.9372 63.0132 42.4872 63.0417C42.7148 61.9692 42.8191 61.0675 42.8475 60.0139C42.6579 60.0044 42.3355 59.938 42.07 59.6723V59.6817ZM33.5737 69.6856C27.9127 76.8136 16.9225 77.2027 15.6898 69.6856C14.4571 62.1685 20.4595 56.4452 20.4595 56.4452C29.8755 47.3525 37.1676 52.0128 37.7839 55.8283C38.4003 59.6438 39.2442 62.5576 33.5832 69.6856H33.5737Z" fill="#BA9D36"/>
</svg>
