<svg width="101" height="142" viewBox="0 0 101 142" fill="none" xmlns="http://www.w3.org/2000/svg">
<path d="M71.3707 107.525L24.4453 107.033L24.4243 109.044L71.3496 109.536L71.3707 107.525Z" fill="white"/>
<path d="M74.5557 112.727L21.0244 112.166L21.0034 114.177L74.5347 114.738L74.5557 112.727Z" fill="white"/>
<path d="M93.2305 133.018C94.03 132.249 95.0083 131.859 96.176 131.859C97.3436 131.859 98.3114 132.249 99.1109 133.018C99.9104 133.797 100.31 134.755 100.31 135.882C100.31 137.008 99.9104 137.945 99.1109 138.714C98.322 139.493 97.3436 139.883 96.176 139.883C95.0083 139.883 94.03 139.493 93.2305 138.714C92.431 137.945 92.0312 136.998 92.0312 135.882C92.0312 134.765 92.431 133.797 93.2305 133.018ZM93.9563 138.072C94.556 138.661 95.2923 138.946 96.176 138.946C97.0596 138.946 97.8065 138.651 98.4061 138.072C99.0057 137.482 99.3003 136.756 99.3003 135.882C99.3003 135.008 99.0057 134.26 98.4061 133.681C97.8065 133.102 97.0701 132.807 96.176 132.807C95.2818 132.807 94.5454 133.102 93.9458 133.681C93.3462 134.271 93.0517 134.997 93.0517 135.882C93.0517 136.766 93.3567 137.482 93.9563 138.072ZM97.9117 136.871L97.9433 137.398C97.9433 137.619 98.0064 137.777 98.1011 137.84H96.8492C96.7861 137.724 96.7545 137.577 96.744 137.398L96.7125 136.966C96.7019 136.787 96.6599 136.671 96.5968 136.608C96.5336 136.545 96.4179 136.513 96.2496 136.513H95.7447V137.84H94.5454V133.86H96.5021C96.9755 133.86 97.3436 133.965 97.6066 134.176C97.8696 134.386 97.9959 134.681 97.9959 135.06C97.9959 135.439 97.817 135.745 97.4594 135.955C97.7434 136.113 97.9012 136.408 97.9222 136.861L97.9117 136.871ZM95.7447 134.839V135.608H96.3338C96.6073 135.608 96.7545 135.481 96.7545 135.218C96.7545 134.955 96.6178 134.829 96.3338 134.829H95.7447V134.839Z" fill="white"/>
<path d="M49.227 3.44266C49.227 3.44266 49.1744 3.44266 49.1533 3.43213C49.1849 3.43213 49.2059 3.43213 49.227 3.44266Z" fill="white"/>
<path d="M49.3746 3.47537C49.3746 3.47537 49.3326 3.46484 49.3115 3.46484C49.3326 3.46484 49.3536 3.46484 49.3746 3.47537Z" fill="white"/>
<path d="M63.8275 84.5714C63.8275 84.5714 62.6914 69.5459 52.9607 60.8486C52.9607 60.8486 56.7057 66.6609 51.7825 77.0534C51.7825 77.0534 49.2578 82.6867 43.0513 87.9514C39.3484 90.8154 32.6895 94.3533 25.7676 93.7426C25.7676 93.7426 33.1418 98.2176 44.7765 98.4177L46.5859 98.5229C46.5859 98.5229 46.7016 101.829 47.8482 104.114L68.5403 104.335C71.5594 101.64 75.8724 87.1722 63.838 84.582L63.8275 84.5714Z" fill="white"/>
<path d="M58.0638 50.8475C58.0218 47.1728 54.3925 47.3518 54.3925 47.3518L53.8244 45.2354C51.6258 47.0148 50.1005 47.7308 48.0913 47.8993L48.5541 50.0578C47.9545 50.2368 47.8809 50.8054 47.8809 50.8054C49.5324 50.7633 49.4693 53.1745 49.4693 53.1745L50.921 54.4591C54.0453 54.2801 53.2143 58.0707 53.2143 58.0707C55.5496 59.2184 58.4425 63.7777 58.4425 63.7777C58.4425 63.7777 58.0954 54.5223 58.0533 50.8475H58.0638Z" fill="white"/>
<path d="M52.279 13.4047C50.1751 4.22302 46.6615 2.15925 46.6615 2.15925C41.4964 -1.81034 34.4272 1.30637 34.4272 1.30637C32.1235 2.01184 30.8506 3.84396 30.8506 3.84396C33.4384 1.46431 39.14 1.60119 39.14 1.60119C45.2098 2.50672 47.6083 9.2245 47.6083 9.2245L51.8161 22.4705L55.3297 34.2635C56.2344 38.1173 55.8241 40.4127 54.7932 41.9395L57.4231 39.465C59.3692 36.2114 57.7913 31.9049 57.7913 31.9049L52.279 13.3836V13.4047Z" fill="white"/>
<path d="M34.9725 9.42403C34.9725 9.42403 40.2007 8.22367 43.5985 6.18096C43.3566 5.74925 43.1567 5.53866 42.8832 5.18066C42.252 5.51761 40.4321 6.64426 36.4452 7.93938C32.7739 9.25556 27.7455 10.0979 26.0203 9.87679C26.0203 9.87679 25.4733 10.6033 25.7257 10.8139C26.5147 11.4878 34.962 9.42403 34.962 9.42403H34.9725Z" fill="white"/>
<path d="M34.6999 6.90782C38.6974 6.12864 40.9696 4.83352 41.6849 4.50711C38.9709 2.52757 36.1095 2.92769 36.1095 2.92769C36.1095 2.92769 32.7959 3.63316 31.5335 3.83322C31.3442 3.86481 31.1443 3.91746 30.9444 3.98063C28.1883 5.27575 27.21 8.28717 27.21 8.28717L28.1462 8.18188L34.6999 6.90782Z" fill="white"/>
<path d="M48.4578 19.2792L48.0686 18.0684C40.484 23.3752 29.2806 23.5753 28.4285 23.4805C27.5764 23.3752 27.8605 22.6803 27.8605 22.6803L27.8289 22.2801C27.324 22.5118 27.3766 23.2173 27.3766 23.2173L27.7132 24.186C29.7224 25.1863 39.2216 24.723 48.4684 19.2898L48.4578 19.2792Z" fill="white"/>
<path d="M26.4945 15.9214C28.7457 16.0267 32.7116 15.1211 32.7116 15.1211C38.1292 14.2156 43.8097 11.7517 45.6296 10.9199L45.2614 9.78271C41.1167 12.2571 32.943 13.9734 32.943 13.9734C32.943 13.9734 27.862 14.9316 26.8416 14.8684C25.8212 14.8053 26.3788 13.9945 26.3788 13.9945L26.221 13.5944C25.2006 14.2893 25.4215 15.2685 25.6845 15.5844C25.9475 15.9003 26.505 15.9214 26.505 15.9214H26.4945Z" fill="white"/>
<path d="M47.6903 16.962L47.2905 15.709C44.3135 17.7938 32.1002 21.1843 28.5025 20.9842C26.9141 20.9 26.9351 20.1945 26.9351 20.1945L26.9036 19.9102L26.8194 19.9629C26.0725 20.2156 26.9246 21.7318 26.9246 21.7318L27.5979 22.1004C29.565 22.7848 39.8216 21.6055 47.7008 16.962H47.6903Z" fill="white"/>
<path d="M35.3205 18.4257C38.5395 17.7519 45.5561 15.0879 46.871 14.414L46.082 11.9712C41.8847 14.1508 34.5315 16.1303 34.5315 16.1303C30.8497 17.0885 26.9995 17.3307 26.4104 17.1622C25.8213 16.9937 26.1474 16.1935 26.1474 16.1935L26.0948 15.8566C25.4952 16.6568 25.6951 17.2148 25.6951 17.2148L26.2947 19.1207C28.2513 20.1736 31.4598 19.226 35.3205 18.4152V18.4257Z" fill="white"/>
<path d="M33.1968 26.9564C33.3862 26.9143 33.5755 26.8933 33.7754 26.8933C35.3744 26.6932 36.7209 26.43 36.7209 26.43C43.3377 24.8716 48.2188 22.4288 49.3129 21.8076L48.85 20.3545C38.8353 25.8719 31.8714 25.5034 29.7359 25.6192C28.7681 25.6719 28.7786 24.9559 28.7786 24.9559L28.6524 24.5136C28.0843 24.7453 28.1685 25.4507 28.1685 25.4507L28.4314 26.3879C28.6734 27.2407 31.0403 27.1881 33.1758 26.9564H33.1968Z" fill="white"/>
<path d="M44.9014 8.58205V8.56099C44.7331 8.22405 44.5648 7.89764 44.3965 7.59229C37.464 11.4039 27.0181 13.1518 26.1976 12.4674C25.9346 12.2463 26.5026 11.4671 26.5026 11.4671L26.2502 11.4461C26.145 11.5303 26.0292 11.5935 25.64 11.962C25.1351 12.4464 25.7768 13.3729 25.7768 13.3729C28.8064 14.3943 37.1274 12.5306 44.9014 8.57152V8.58205Z" fill="white"/>
<path d="M50.1102 24.4494L49.7104 23.249C45.6919 25.8077 39.4854 27.3976 37.0869 27.9557L37.5077 29.1244C44.8714 27.6503 49.0898 25.1233 50.1102 24.4494Z" fill="white"/>
<path d="M51.7517 29.3666L51.4151 28.3452L48.8799 29.7035C45.8608 31.2303 41.0533 32.3675 38.8652 32.8413L39.3176 34.0732C47.2599 32.1358 50.7945 30.0299 51.7623 29.3771L51.7517 29.3666Z" fill="white"/>
<path d="M43.632 30.1675C47.5137 29.0829 50.2488 27.4404 50.9536 26.9876L50.5434 25.7451C50.1541 25.9978 48.9549 26.7244 45.9463 27.9774C43.1902 29.1251 39.7187 29.9779 37.9619 30.3675L38.3932 31.5468C39.3926 31.3047 41.0862 30.873 43.632 30.1569V30.1675Z" fill="white"/>
<path d="M50.7412 4.54809C50.899 4.79027 51.0358 5.01139 51.1515 5.21145C52.7925 4.28486 52.8977 4.20062 52.7084 3.48462C52.5085 2.74756 51.3619 2.94762 51.3619 2.94762L51.5723 3.14768C53.2975 3.14768 51.425 4.20062 50.7517 4.54809H50.7412Z" fill="white"/>
<path d="M53.2023 5.10685C53.5705 5.38062 52.2871 6.22297 51.8242 6.50726L52.266 7.62338L53.5599 6.73891C54.6855 6.0545 54.0018 5.1595 54.0018 5.1595C53.7388 4.73832 52.792 4.64355 52.792 4.64355L52.9183 4.81203L53.2128 5.11738L53.2023 5.10685Z" fill="white"/>
<path d="M52.8125 9.00202L53.4858 11.3501L54.9795 10.4446C55.9368 9.98126 55.758 9.01255 55.758 9.01255C55.758 9.01255 55.3477 7.8122 55.2004 7.44367C55.0532 7.07514 54.4851 7.29626 54.4851 7.29626C55.5792 7.59108 53.5594 8.64402 52.8125 9.00202Z" fill="white"/>
<path d="M56.5813 13.4146L56.6654 13.6567C57.7805 13.9094 55.3925 15.173 54.6982 15.531L54.9507 16.426C55.4346 16.1311 56.9074 15.2151 56.9074 15.2151C57.6753 14.7307 57.5385 14.3727 57.5385 14.3727L57.3597 13.7936C57.1598 13.3724 56.5707 13.4251 56.5707 13.4251L56.5813 13.4146Z" fill="white"/>
<path d="M57.4114 15.9404C57.4114 15.9404 57.9058 15.7824 57.6744 16.2879C57.485 16.709 55.9176 17.6461 55.3916 17.962L55.6651 18.9307L57.5586 17.583C58.1898 17.1302 58.1898 16.6669 58.1898 16.6669L57.9899 15.9614C57.8427 15.5718 57.3588 15.793 57.3588 15.793L57.4114 15.9509V15.9404Z" fill="white"/>
<path d="M58.0227 18.2048L58.1279 18.2258C59.0852 18.6786 56.8235 19.9737 56.0977 20.3633L56.4132 21.4584C56.9497 21.153 58.7276 20.1001 58.8433 19.363C58.98 18.4891 58.7591 18.3417 58.7591 18.3417C58.5172 17.9415 57.9386 17.8994 57.9386 17.8994L58.0333 18.2048H58.0227Z" fill="white"/>
<path d="M58.5781 20.4907L58.6201 20.6381H58.6833C59.6826 20.7434 58.9462 21.4068 58.9462 21.4068L56.8213 22.9125L57.1158 23.9338C57.4104 23.7338 58.3046 23.1126 58.8937 22.6808C58.9147 22.6703 58.9357 22.6493 58.9462 22.6387C59.6511 22.1228 59.6195 21.5331 59.6195 21.5331L59.5038 20.8171C59.3565 20.417 58.5675 20.5013 58.5675 20.5013L58.5781 20.4907Z" fill="white"/>
<path d="M59.0948 23.1124L59.1894 23.1546C59.9574 23.4704 59.3472 24.0496 59.3472 24.0496L57.5273 25.3341L57.8429 26.4397C58.5057 26.0291 58.9896 25.6816 59.3367 25.3868C59.2631 25.3657 59.2105 25.3657 59.2105 25.3657L59.7259 25.0393C60.4097 24.3654 60.2835 24.0811 60.2835 24.0811L60.2519 23.4073C60.1046 22.5965 59.1684 22.6702 59.1684 22.6702H58.9054C58.9054 22.6702 58.9475 22.7544 58.9475 22.765L59.0948 23.1124Z" fill="white"/>
<path d="M55.7501 10.782H55.8553C56.6758 11.0241 55.8132 11.6454 55.8132 11.6454L53.9092 12.751L54.2248 13.8566L56.0131 12.6667C56.7495 12.1087 56.7284 11.5506 56.7284 11.5506L56.4865 10.8767C56.0867 10.4134 55.6554 10.5714 55.6554 10.5714L55.7606 10.7714L55.7501 10.782Z" fill="white"/>
<path d="M49.4062 2.73759C49.6061 2.96924 49.7955 3.20089 49.9638 3.43253C51.931 2.15847 50.7317 1.66359 50.0374 1.49512C51.2472 1.80047 49.9217 2.49541 49.4062 2.73759Z" fill="white"/>
<path d="M48.9312 0.852208L48.6892 0.704796C48.6366 0.662679 48.5735 0.63109 48.5104 0.588972L48.4368 0.546855C47.2796 -0.0954407 45.7858 -0.0322641 44.9863 0.0519713C45.9331 0.273089 47.1744 0.694267 48.1948 1.52609L48.9207 0.852208H48.9312Z" fill="white"/>
<path d="M61.6183 31.082L60.8714 25.9121C60.8714 25.9121 60.7031 25.1224 59.8089 25.0171C59.8089 25.0171 59.5459 25.2593 59.3882 25.3856C59.7669 25.4699 60.7662 25.8068 59.7248 26.8071L58.21 27.6916L58.4519 28.5339C58.4519 28.5339 60.924 36.1256 59.02 38.3579C59.02 38.3579 61.7761 35.6939 61.6288 31.082H61.6183Z" fill="white"/>
<path d="M29.4192 28.4725C29.4192 27.9039 29.4823 27.7881 29.4823 27.7881L29.3982 27.4722L29.293 27.6406C29.293 27.6406 28.6618 28.4303 29.3561 29.3148C29.7348 29.7992 30.5343 29.9045 31.1865 29.9045L30.8078 28.8094C30.1451 28.8305 29.3982 28.7883 29.3982 28.4725H29.4192Z" fill="white"/>
<path d="M30.2696 30.2192L30.217 29.8296L30.1539 29.9349C30.1539 29.9349 29.933 30.3245 30.0382 30.8194C30.1434 31.3248 30.4589 31.6933 30.4589 31.6933C30.4589 31.6933 30.8271 32.2303 32.0159 32.2514L31.6371 31.1563C30.9113 31.1142 30.0066 30.9352 30.2696 30.2192Z" fill="white"/>
<path d="M31.2685 32.9048L31.1633 32.3257L31.1108 32.452C31.1108 32.452 30.7952 33.0733 30.995 33.684C31.1633 34.1894 31.7104 34.7369 32.857 34.6948L32.4783 33.5997C31.8682 33.5997 31.0897 33.505 31.2685 32.9048Z" fill="white"/>
<path d="M52.12 30.4716C45.2823 35.1045 38.6339 35.5468 38.3919 35.5678C37.8344 34.0305 36.4879 30.2715 36.2249 29.1765C35.9829 28.1656 34.952 27.6392 33.9632 27.6392C33.7738 27.6602 33.574 27.6813 33.3741 27.7129C33.2058 27.755 33.048 27.8076 32.9007 27.8813C31.7435 28.4605 32.1854 29.545 32.1854 29.545L34.1631 35.8626L32.3011 35.9995C32.3011 35.9995 32.8902 38.4634 33.5845 39.39C33.5845 39.4005 33.6055 39.4111 33.6266 39.4321C34.7942 41.7065 37.1717 44.5705 41.7898 45.1601C49.2166 46.1078 51.3521 43.9071 53.2877 41.5064C54.8446 38.6108 52.1305 30.4821 52.1305 30.4821L52.12 30.4716Z" fill="white"/>
<path d="M15.6588 117.646L0.689453 139.726L49.7423 141.821L53.0244 118.204L15.6588 117.646Z" fill="white"/>
<path d="M91.473 140.536L79.165 118.582L55.4118 118.235L52.1191 141.916L54.1705 142L91.473 140.536Z" fill="white"/>
<path d="M31.7963 52.8267C31.7963 52.8267 31.6912 51.5105 32.2802 51.2999C32.8693 51.0894 33.2796 51.142 34.1212 52.0791L31.8069 52.8267H31.7963Z" fill="white"/>
<path d="M41.325 51.4373C41.325 51.4373 41.325 50.1 40.1257 49.7315C38.9475 49.3735 38.2217 50.5212 38.2217 51.2898V51.4162H38.2322C38.2322 51.4162 40.3466 51.353 41.2934 51.5847H41.3355V51.4373H41.325Z" fill="white"/>
<path d="M18.2683 61.8392C18.2683 61.8392 18.0053 62.1445 18.2683 62.4709C18.5312 62.7973 18.6996 62.9026 18.6996 62.9026L18.8258 63.0606L19.9724 61.6075L20.1092 61.439L19.3833 60.9547C19.3833 60.9547 19.0046 60.6178 18.2683 61.8286V61.8392Z" fill="white"/>
<path d="M24.6953 56.9229C24.6953 56.9229 24.2009 56.1332 24.6953 55.7436C25.1897 55.354 25.5474 55.3856 25.5474 55.3856C25.5474 55.3856 25.8946 55.1856 26.2417 55.87L24.6953 56.9229Z" fill="white"/>
<path d="M15.8279 68.3155L15.7542 68.2629C15.6806 68.1997 15.3124 67.947 14.7864 68.1681C14.1868 68.4208 14.1658 69.3264 14.1658 69.3264C14.1658 69.3264 14.0395 69.7475 14.818 70.2424L14.8811 70.2845L14.9127 70.3056C14.9127 70.3056 15.7753 68.4103 15.8174 68.3471V68.3261L15.8279 68.3155Z" fill="white"/>
<path d="M14.027 74.3369H13.8903C12.954 74.358 12.7647 74.8423 12.7647 74.8423C12.7647 74.8423 12.7436 75.6531 12.7752 76.1585C12.8068 76.6639 13.8166 76.7376 13.8166 76.7376H13.9113C13.8166 75.9058 14.0376 74.358 14.0376 74.358V74.3369H14.027Z" fill="white"/>
<path d="M26.0312 56.4902C26.0312 56.4902 26.0838 56.4586 26.1049 56.4375C26.0523 56.4691 26.0312 56.4902 26.0312 56.4902Z" fill="white"/>
<path d="M14.9242 80.7285C14.4929 79.3807 14.4403 78.3067 14.4614 77.9487C14.4614 77.9487 14.1458 79.2017 14.4824 81.0023C14.514 80.9707 14.6718 80.8338 14.9242 80.7285Z" fill="white"/>
<path d="M18.2353 86.0671C18.2353 86.0671 16.9309 86.5304 17.1623 88.5415C17.3937 90.5526 19.3504 89.3628 19.3504 89.3628C19.3504 89.3628 18.4141 88.8469 19.0979 87.4675C19.4766 86.7094 19.6975 85.7933 18.2248 86.0671H18.2353Z" fill="white"/>
<path d="M22.7813 90.848C23.2442 92.6169 24.8221 91.3323 24.6223 91.1744C24.4224 91.0165 24.5171 90.6479 24.8537 89.8793C25.1903 89.1106 25.2535 88.2788 24.7906 88.0051C23.402 87.1838 22.3185 89.0791 22.7813 90.848Z" fill="white"/>
<path d="M31.9962 89.4996C32.3538 89.9208 32.5853 90.4999 32.0488 90.8684C31.3966 91.3212 30.3025 90.8263 29.9028 90.0366C29.5241 89.2995 29.2926 88.0992 30.1237 87.6885C31.5228 86.9936 31.6385 89.0679 31.9962 89.4996Z" fill="white"/>
<path d="M39.0337 85.0562C39.0968 85.5405 41.1797 86.8567 39.1179 87.499C39.0653 87.5201 38.8444 87.499 38.7076 87.4148C38.2974 87.1621 37.4453 86.583 37.0981 85.8143C35.4781 82.6344 38.392 82.2659 39.0337 85.0457V85.0562Z" fill="white"/>
<path d="M42.7361 78.2646C42.7361 78.2646 42.431 78.5699 42.7676 79.1385C43.1043 79.7071 44.1667 79.8229 44.8926 80.2546C45.5553 80.6547 45.2292 82.1289 45.6921 81.5287C46.1549 80.9285 46.5652 80.8443 46.5126 79.5386C46.5126 79.5386 46.4495 78.77 45.3449 78.3698C44.2404 77.9697 43.3357 77.4643 42.7361 78.2646Z" fill="white"/>
<path d="M46.5115 70.9788C46.5115 70.9788 48.4786 69.9048 50.1933 71.1789C51.8975 72.4529 50.3616 74.3166 49.4569 73.6533C49.1624 73.4322 48.426 72.5161 46.7113 72.6214C46.7113 72.6214 44.8914 72.0844 46.5115 70.9788Z" fill="white"/>
<path d="M48.3542 64.2812C48.3542 64.2812 48.0492 64.9551 48.3858 65.4184C48.7224 65.8817 49.3536 65.5869 49.3536 65.5869C49.3536 65.5869 50.8684 65.0709 51.2997 66.1765C51.4575 66.3134 51.9204 66.9557 52.1939 65.7238C52.8251 62.8282 48.9854 62.6492 48.3542 64.2812Z" fill="white"/>
<path d="M48.6291 57.0283C48.6291 57.0283 44.8841 59.0184 46.8302 59.8924C47.4929 60.1977 49.2813 58.7762 49.2813 58.7762C49.2813 58.7762 50.4805 58.513 50.6699 59.4396L50.7961 59.3238C50.7961 59.3238 51.1117 56.0807 48.6291 57.0389V57.0283Z" fill="white"/>
<path d="M43.5766 54.1104C43.5766 54.1104 44.3446 52.1414 45.5859 52.3414C46.8272 52.5415 46.6694 52.8679 46.7325 54.4368L46.3538 54.3104C46.3538 54.3104 45.6174 53.9103 44.8179 55.216C44.8179 55.216 44.0816 56.1847 43.4819 55.953C42.8823 55.7214 43.5871 54.1104 43.5871 54.1104H43.5766Z" fill="white"/>
<path d="M45.8486 54.9951C46.6481 55.7006 47.0584 56.1849 47.5633 57.0062C47.9105 56.6798 48.3313 56.585 48.5837 56.5113C48.0367 55.8164 47.5844 55.3847 46.827 54.774C46.5008 54.7319 46.1221 54.8371 45.8486 54.9951Z" fill="white"/>
<path d="M30.4277 54.0364C32.6263 53.194 35.6349 52.4569 39.4641 52.478C41.0736 52.478 42.4201 52.8044 43.5562 53.3204C43.6824 53.1308 43.8087 52.9939 43.9033 52.8886C39.2642 50.9091 34.0254 52.4043 30.4277 54.0364Z" fill="white"/>
<path d="M16.0808 83.9399C15.9546 84.1084 15.7126 84.5612 15.944 85.2035C16.207 85.6562 16.5752 86.1932 16.9224 86.6355C16.9539 86.2143 17.1853 85.9616 17.3537 85.8352C16.8277 85.2351 16.4069 84.5717 16.0808 83.9505V83.9399Z" fill="white"/>
<path d="M15.5224 83.3713C16.8899 81.8024 16.2061 80.7178 14.8281 81.3075C14.8281 81.3075 12.8609 82.2762 13.3974 84.1399C13.3974 84.1399 13.429 85.1718 15.333 85.1718C15.0385 84.2768 15.3751 83.6029 15.5329 83.3607L15.5224 83.3713Z" fill="white"/>
<path d="M19.5295 87.7207C19.3612 87.8576 19.1192 88.2156 19.5295 88.9211C20.2553 89.3422 21.0443 89.8266 22.0226 90.2057C22.0226 89.8161 22.1278 89.4475 22.2435 89.1422C21.2021 88.7421 20.2974 88.2682 19.5189 87.7207H19.5295Z" fill="white"/>
<path d="M29.3251 90.1106C28.1995 90.237 27.0213 90.2054 25.7485 90.0264C25.4118 90.3423 25.3908 90.6897 25.5381 91.0688C26.9056 91.2794 28.3784 91.311 29.9774 91.0583C29.5566 90.7634 29.3883 90.3844 29.3251 90.1211V90.1106Z" fill="white"/>
<path d="M37.2445 87.2788C35.9086 88.1738 34.4463 88.9214 32.8789 89.4268C33.0472 89.6901 33.2366 90.1007 33.1419 90.4166C34.7093 89.9112 36.3609 89.1425 38.0756 88.0369C37.7179 87.8053 37.4444 87.5315 37.234 87.2788H37.2445Z" fill="white"/>
<path d="M44.0294 80.8022C42.9143 82.2448 41.5888 83.7189 40.0635 85.0351C40.2633 85.2351 40.5895 85.6037 40.6947 86.0038C41.3995 85.4563 42.1148 84.8666 42.8301 84.2033C42.8301 84.2033 43.6191 83.5399 44.7763 82.1605C44.7447 81.3287 44.345 80.9602 44.0294 80.8022Z" fill="white"/>
<path d="M48.1539 74.1804C47.7962 74.9702 47.144 76.339 46.1973 77.9079C46.4708 78.0132 46.881 78.2869 47.0388 78.9398C47.4281 78.308 47.8173 77.6025 48.217 76.8233H48.2065C48.6483 75.9599 48.8692 75.3913 48.9955 74.9491C48.8482 74.37 48.3012 74.2226 48.1539 74.1699V74.1804Z" fill="white"/>
<path d="M49.9206 66.2202C49.9206 67.3995 49.8048 68.7789 49.4893 70.253C49.6891 70.2846 50.1099 70.3899 50.5623 70.8005C50.8358 69.6633 51.0988 68.3366 51.225 66.9257C50.8042 66.336 50.2151 66.2307 49.9311 66.2202H49.9206Z" fill="white"/>
<path d="M51.1735 62.9017C51.142 62.649 51.1104 62.4069 51.0578 62.1541C50.9316 61.3329 50.3951 59.9324 50.3425 59.7324C50.0058 59.2164 49.4062 59.5744 48.9434 59.7008C49.5009 61.2276 49.543 62.3331 49.6166 62.7227C50.0269 62.6069 50.5949 62.5753 51.163 62.9123L51.1735 62.9017Z" fill="white"/>
<path d="M22.7367 66.1674C22.7367 66.1674 18.5814 71.6638 20.2225 76.5389C21.8741 81.414 27.5967 82.825 34.1084 77.8761C40.62 72.9273 41.8823 65.304 39.284 61.5344C36.6962 57.7649 27.9859 58.6283 22.7261 66.1674H22.7367Z" fill="white"/>
<path d="M47.2481 66.2094C47.0482 66.062 46.8483 65.7882 46.8062 65.2512C46.6379 64.2615 47.4164 63.6718 47.9634 63.3875C47.8161 62.2503 47.5531 61.3869 47.206 60.3972C46.0909 61.0921 44.7444 59.5127 46.2697 58.1228C45.7964 57.3015 45.4492 56.7013 44.8075 56.1327C43.3558 57.3752 42.7667 56.0696 42.7562 55.9221C42.7141 55.5957 42.7562 55.164 42.8824 54.9429C39.0112 53.3635 32.4785 54.0479 27.9551 56.5644C27.1977 57.0067 26.6822 57.3542 26.5034 57.47C26.4824 57.491 26.4508 57.5016 26.4298 57.5226C26.4298 57.5226 20.7492 60.5762 16.4993 70.716C16.4993 70.716 14.9108 75.6227 16.2889 80.3504C16.5413 80.2767 16.8464 80.2767 17.2041 80.4663C17.972 80.8874 17.2672 82.0983 17.0884 82.3721C17.5512 83.2882 18.1614 84.1621 18.9609 84.9518C18.9924 84.9413 19.0345 84.9307 19.066 84.9097C19.7393 84.5096 20.6335 84.7623 20.5704 85.552C20.5493 85.7942 20.4862 86.0047 20.4126 86.1627C20.8439 86.468 21.3172 86.7523 21.8327 87.0156C22.2114 87.2051 22.5901 87.3841 22.9583 87.5315C23.1056 87.2472 23.9156 85.8363 25.3042 86.4575C25.3778 86.4891 25.4514 86.5207 25.5356 86.5628C25.6513 86.6154 25.7355 86.6892 25.7986 86.7734C25.7986 86.7734 26.1878 87.163 25.9774 88.3423C27.103 88.5002 28.2076 88.4897 29.3016 88.3423C29.1649 87.6895 29.2069 86.7523 30.322 86.289C30.322 86.289 30.4167 86.268 30.5324 86.2575C30.6586 86.2364 30.7849 86.2259 30.9322 86.2575C30.9322 86.2575 31.6265 86.2469 32.2471 87.6052V87.6263C33.6883 87.1209 35.0769 86.3943 36.3918 85.5309C36.1709 84.9097 35.6765 83.2039 36.6653 82.4563C37.8646 81.5403 38.7167 82.7933 38.9376 83.604C40.4419 82.3089 41.4202 81.2139 42.5879 79.7608C41.3781 79.1711 41.7253 77.9181 41.7253 77.9181C42.0724 76.9494 43.4715 77.0653 44.3657 77.4022C45.4702 75.8228 46.154 74.6961 46.6695 73.4852C45.9331 73.3905 43.7976 72.8429 44.7128 71.4425C45.5649 70.1369 47.1008 69.9052 47.7109 69.9368C47.9634 68.747 48.0791 67.7467 48.1107 66.5779C47.9003 66.5674 47.5426 66.4937 47.2481 66.1989V66.2094ZM37.8225 77.3074C31.5423 85.215 19.3501 85.6467 17.9825 77.3074C16.615 68.9681 23.2739 62.6189 23.2739 62.6189C33.7198 52.5317 41.8094 57.7016 42.4932 61.9345C43.177 66.1673 44.1132 69.3998 37.833 77.3074H37.8225Z" fill="white"/>
</svg>
