<svg width="33" height="32" viewBox="0 0 33 32" fill="none" xmlns="http://www.w3.org/2000/svg">
<g clip-path="url(#clip0_7783_9524)">
<rect x="0.833984" width="32" height="32" rx="16" fill="white"/>
<path d="M32.834 16C32.834 7.1625 25.6715 0 16.834 0C7.99648 0 0.833984 7.1625 0.833984 16C0.833984 23.9875 6.68398 30.6062 14.334 31.8062V20.625H10.2715V16H14.334V12.475C14.334 8.46563 16.7215 6.25 20.3777 6.25C22.1277 6.25 23.959 6.5625 23.959 6.5625V10.5H21.9402C19.9527 10.5 19.334 11.7344 19.334 13V16H23.7715L23.0621 20.625H19.334V31.8062C26.984 30.6062 32.834 23.9875 32.834 16Z" fill="#3A01AB"/>
</g>
<defs>
<clipPath id="clip0_7783_9524">
<rect x="0.833984" width="32" height="32" rx="16" fill="white"/>
</clipPath>
</defs>
</svg>
