<svg width="33" height="32" viewBox="0 0 33 32" fill="none" xmlns="http://www.w3.org/2000/svg">
<rect x="0.166992" width="32" height="32" rx="16" fill="white"/>
<path fill-rule="evenodd" clip-rule="evenodd" d="M16.167 0C7.33044 0 0.166992 7.16344 0.166992 16C0.166992 24.8366 7.33044 32 16.167 32C25.0035 32 32.167 24.8366 32.167 16C32.167 7.16344 25.0035 0 16.167 0ZM12.6492 7.51822C13.5594 7.4768 13.8503 7.46667 16.1678 7.46667H16.1651C18.4834 7.46667 18.7732 7.4768 19.6834 7.51822C20.5918 7.55982 21.2123 7.70365 21.7563 7.91467C22.3181 8.13245 22.7927 8.42401 23.2674 8.89868C23.7421 9.373 24.0337 9.84909 24.2523 10.4103C24.4621 10.9529 24.6061 11.573 24.6488 12.4815C24.6897 13.3917 24.7003 13.6826 24.7003 16.0001C24.7003 18.3176 24.6897 18.6078 24.6488 19.518C24.6061 20.4261 24.4621 21.0464 24.2523 21.5891C24.0337 22.1502 23.7421 22.6263 23.2674 23.1006C22.7933 23.5753 22.3179 23.8675 21.7568 24.0855C21.2139 24.2965 20.5931 24.4404 19.6846 24.482C18.7744 24.5234 18.4844 24.5335 16.1667 24.5335C13.8494 24.5335 13.5587 24.5234 12.6485 24.482C11.7402 24.4404 11.1199 24.2965 10.577 24.0855C10.0161 23.8675 9.53999 23.5753 9.06585 23.1006C8.59136 22.6263 8.2998 22.1502 8.08166 21.5889C7.87082 21.0464 7.72699 20.4263 7.68521 19.5178C7.64397 18.6076 7.63366 18.3176 7.63366 16.0001C7.63366 13.6826 7.64433 13.3915 7.68504 12.4813C7.72593 11.5732 7.86993 10.9529 8.08149 10.4102C8.30015 9.84909 8.59171 9.373 9.06639 8.89868C9.5407 8.42419 10.0168 8.13263 10.578 7.91467C11.1206 7.70365 11.7407 7.55982 12.6492 7.51822Z" fill="#3A01AB"/>
<path fill-rule="evenodd" clip-rule="evenodd" d="M15.402 9.00409C15.5506 9.00385 15.7105 9.00393 15.8831 9.004L16.1675 9.00409C18.4459 9.00409 18.716 9.01226 19.6157 9.05315C20.4477 9.0912 20.8993 9.23022 21.2001 9.34702C21.5983 9.50169 21.8822 9.68658 22.1807 9.98525C22.4794 10.2839 22.6643 10.5684 22.8193 10.9666C22.9361 11.267 23.0753 11.7186 23.1132 12.5506C23.1541 13.4502 23.163 13.7204 23.163 15.9978C23.163 18.2751 23.1541 18.5453 23.1132 19.4449C23.0751 20.2769 22.9361 20.7285 22.8193 21.0289C22.6646 21.4271 22.4794 21.7107 22.1807 22.0092C21.8821 22.3079 21.5985 22.4928 21.2001 22.6474C20.8996 22.7648 20.4477 22.9034 19.6157 22.9415C18.7162 22.9824 18.4459 22.9913 16.1675 22.9913C13.8889 22.9913 13.6189 22.9824 12.7193 22.9415C11.8873 22.9031 11.4357 22.7641 11.1347 22.6473C10.7365 22.4926 10.4521 22.3077 10.1534 22.009C9.85473 21.7104 9.66984 21.4266 9.51481 21.0282C9.39801 20.7278 9.25881 20.2762 9.22094 19.4442C9.18005 18.5446 9.17188 18.2744 9.17188 15.9956C9.17188 13.7168 9.18005 13.448 9.22094 12.5485C9.25899 11.7165 9.39801 11.2649 9.51481 10.9641C9.66948 10.5659 9.85473 10.2814 10.1534 9.98276C10.4521 9.68409 10.7365 9.4992 11.1347 9.34418C11.4355 9.22684 11.8873 9.08818 12.7193 9.04995C13.5065 9.0144 13.8116 9.00373 15.402 9.00195V9.00409ZM20.7226 10.421C20.1572 10.421 19.6986 10.8791 19.6986 11.4446C19.6986 12.01 20.1572 12.4687 20.7226 12.4687C21.2879 12.4687 21.7466 12.01 21.7466 11.4446C21.7466 10.8793 21.2879 10.4206 20.7226 10.4206V10.421ZM11.7852 15.9997C11.7852 13.5797 13.7473 11.6175 16.1673 11.6174C18.5874 11.6174 20.5491 13.5796 20.5491 15.9997C20.5491 18.4198 18.5876 20.3811 16.1675 20.3811C13.7474 20.3811 11.7852 18.4198 11.7852 15.9997Z" fill="#3A01AB"/>
<path d="M16.1677 13.1553C17.7386 13.1553 19.0122 14.4287 19.0122 15.9997C19.0122 17.5706 17.7386 18.8442 16.1677 18.8442C14.5967 18.8442 13.3232 17.5706 13.3232 15.9997C13.3232 14.4287 14.5967 13.1553 16.1677 13.1553Z" fill="#3A01AB"/>
</svg>
