<svg width="33" height="32" viewBox="0 0 33 32" fill="none" xmlns="http://www.w3.org/2000/svg">
<rect x="0.666992" width="32" height="32" rx="16" fill="#3A01AB"/>
<g clip-path="url(#clip0_7783_9516)">
<path fill-rule="evenodd" clip-rule="evenodd" d="M13.4905 20.441C13.8074 20.6082 14.1602 20.6955 14.5184 20.6953C15.7116 20.6953 16.6856 19.7462 16.7296 18.5633L16.734 8H19.3695C19.3698 8.22436 19.3906 8.44823 19.4318 8.66877H17.5021V8.66914H19.4318H20.138C20.1376 9.55321 20.458 10.4074 21.0398 11.0731C21.0401 11.0733 21.0403 11.0736 21.0405 11.0739C21.634 11.4616 22.3277 11.6677 23.0366 11.6671V12.2541C23.2847 12.3072 23.5412 12.3355 23.8051 12.3355V14.9717C22.4892 14.9733 21.2063 14.5607 20.138 13.7925V19.1489C20.138 21.8236 17.9616 24 15.2865 24C14.6203 24.0002 13.9613 23.8627 13.3507 23.5963C12.7406 23.3301 12.1919 22.9408 11.7392 22.4528C11.7388 22.4526 11.7385 22.4523 11.7382 22.4521C10.4871 21.5737 9.66699 20.1211 9.66699 18.4801C9.66699 15.805 11.8433 13.6283 14.5184 13.6283C14.7372 13.6294 14.9556 13.6453 15.1722 13.676V14.3C15.1722 14.3 15.1722 14.3 15.1722 14.3L15.1722 16.3668C15.1722 16.3668 15.1722 16.3668 15.1722 16.3668L15.1722 14.3C15.1874 14.2997 15.2026 14.2992 15.2177 14.2987C15.2406 14.2979 15.2634 14.2971 15.2865 14.2971C15.5053 14.2981 15.7237 14.3141 15.9403 14.3447V17.0356C15.7336 16.9707 15.5148 16.933 15.2865 16.933C14.6991 16.9337 14.1359 17.1674 13.7205 17.5828C13.3051 17.9982 13.0715 18.5615 13.071 19.1489C13.071 19.6129 13.2176 20.065 13.49 20.4407C13.4902 20.4408 13.4903 20.4409 13.4905 20.441ZM16.3194 21.1082C16.9978 20.7482 17.4676 20.0452 17.4981 19.2317V19.2321C17.4676 20.0453 16.9978 20.7483 16.3194 21.1082ZM14.5186 16.2642C14.6543 16.2642 14.7867 16.2775 14.9153 16.3019C14.7847 16.2773 14.6519 16.2646 14.5186 16.2642ZM12.9525 16.9139C12.9525 16.9139 12.9525 16.9139 12.9525 16.9139V16.9139ZM10.7551 20.8799C10.9802 21.4665 11.3163 21.9987 11.7371 22.451C11.3077 21.9914 10.9761 21.457 10.7551 20.8799ZM14.5184 23.3312C14.5184 23.3312 14.5184 23.3312 14.5184 23.3312V23.3312ZM19.3695 18.4798V13.1234C19.3695 13.1234 19.3695 13.1234 19.3695 13.1234V18.4798Z" fill="white"/>
</g>
<defs>
<clipPath id="clip0_7783_9516">
<rect width="16" height="16" fill="white" transform="translate(8.66699 8)"/>
</clipPath>
</defs>
</svg>
