<svg width="33" height="32" viewBox="0 0 33 32" fill="none" xmlns="http://www.w3.org/2000/svg">
<rect x="0.333984" width="32" height="32" rx="16" fill="white"/>
<path fill-rule="evenodd" clip-rule="evenodd" d="M16.334 0C7.49743 0 0.333984 7.16344 0.333984 16C0.333984 24.8366 7.49743 32 16.334 32C25.1705 32 32.334 24.8366 32.334 16C32.334 7.16344 25.1705 0 16.334 0ZM23.0017 10.4996C23.7361 10.7011 24.3144 11.2948 24.5107 12.0488C24.8673 13.4154 24.8673 16.2667 24.8673 16.2667C24.8673 16.2667 24.8673 19.1179 24.5107 20.4845C24.3144 21.2385 23.7361 21.8323 23.0017 22.0339C21.6709 22.4 16.334 22.4 16.334 22.4C16.334 22.4 10.9971 22.4 9.66615 22.0339C8.9318 21.8323 8.35348 21.2385 8.15721 20.4845C7.80065 19.1179 7.80065 16.2667 7.80065 16.2667C7.80065 16.2667 7.80065 13.4154 8.15721 12.0488C8.35348 11.2948 8.9318 10.7011 9.66615 10.4996C10.9971 10.1333 16.334 10.1333 16.334 10.1333C16.334 10.1333 21.6709 10.1333 23.0017 10.4996Z" fill="#3A01AB"/>
<path d="M14.7344 19.1995V13.8662L19.001 16.533L14.7344 19.1995Z" fill="#3A01AB"/>
</svg>
