<svg width="109" height="40" viewBox="0 0 109 40" fill="none" xmlns="http://www.w3.org/2000/svg">
<g clip-path="url(#clip0_7126_2948)">
<path d="M19.9098 30.2885L6.69141 30.1499L6.68548 30.7164L19.9039 30.8549L19.9098 30.2885Z" fill="#3A01AB"/>
<path d="M20.8073 31.7543L5.72803 31.5962L5.7221 32.1627L20.8013 32.3207L20.8073 31.7543Z" fill="#3A01AB"/>
<path d="M26.0678 37.4698C26.293 37.2533 26.5686 37.1436 26.8975 37.1436C27.2264 37.1436 27.4991 37.2533 27.7243 37.4698C27.9495 37.6893 28.0621 37.9592 28.0621 38.2766C28.0621 38.5939 27.9495 38.8579 27.7243 39.0744C27.502 39.2939 27.2264 39.4037 26.8975 39.4037C26.5686 39.4037 26.293 39.2939 26.0678 39.0744C25.8426 38.8579 25.73 38.591 25.73 38.2766C25.73 37.9622 25.8426 37.6893 26.0678 37.4698ZM26.2723 38.8935C26.4412 39.0596 26.6486 39.1397 26.8975 39.1397C27.1464 39.1397 27.3568 39.0567 27.5257 38.8935C27.6946 38.7274 27.7776 38.5228 27.7776 38.2766C27.7776 38.0304 27.6946 37.8198 27.5257 37.6567C27.3568 37.4935 27.1494 37.4105 26.8975 37.4105C26.6456 37.4105 26.4382 37.4935 26.2693 37.6567C26.1004 37.8228 26.0174 38.0274 26.0174 38.2766C26.0174 38.5257 26.1034 38.7274 26.2723 38.8935ZM27.3864 38.5554L27.3953 38.7037C27.3953 38.766 27.4131 38.8105 27.4398 38.8283H27.0872C27.0694 38.7956 27.0605 38.7541 27.0575 38.7037L27.0486 38.5821C27.0457 38.5317 27.0338 38.499 27.016 38.4812C26.9983 38.4634 26.9657 38.4545 26.9182 38.4545H26.776V38.8283H26.4382V37.7071H26.9894C27.1227 37.7071 27.2264 37.7368 27.3005 37.7961C27.3746 37.8554 27.4102 37.9385 27.4102 38.0452C27.4102 38.152 27.3598 38.238 27.259 38.2973C27.339 38.3418 27.3835 38.4249 27.3894 38.5524L27.3864 38.5554ZM26.776 37.9829V38.1995H26.942C27.019 38.1995 27.0605 38.1639 27.0605 38.0897C27.0605 38.0156 27.022 37.98 26.942 37.98H26.776V37.9829Z" fill="#3A01AB"/>
<path d="M13.6726 0.969763C13.6726 0.969763 13.6578 0.969763 13.6519 0.966797C13.6607 0.966797 13.6667 0.966797 13.6726 0.969763Z" fill="#3A01AB"/>
<path d="M13.7141 0.978552C13.7141 0.978552 13.7022 0.975586 13.6963 0.975586C13.7022 0.975586 13.7081 0.975586 13.7141 0.978552Z" fill="#3A01AB"/>
<path d="M17.7856 23.8231C17.7856 23.8231 17.4655 19.5906 14.7245 17.1406C14.7245 17.1406 15.7794 18.7779 14.3926 21.7054C14.3926 21.7054 13.6814 23.2922 11.9331 24.7752C10.89 25.582 9.01428 26.5786 7.06445 26.4065C7.06445 26.4065 9.1417 27.6671 12.4191 27.7235L12.9288 27.7531C12.9288 27.7531 12.9614 28.6844 13.2844 29.3281L19.1131 29.3904C19.9636 28.6311 21.1785 24.5557 17.7885 23.8261L17.7856 23.8231Z" fill="#3A01AB"/>
<path d="M16.1619 14.3231C16.15 13.2879 15.1277 13.3384 15.1277 13.3384L14.9677 12.7422C14.3484 13.2434 13.9187 13.4451 13.3527 13.4926L13.4831 14.1006C13.3142 14.1511 13.2935 14.3112 13.2935 14.3112C13.7587 14.2994 13.7409 14.9786 13.7409 14.9786L14.1498 15.3404C15.0299 15.29 14.7958 16.3578 14.7958 16.3578C15.4537 16.6811 16.2686 17.9654 16.2686 17.9654C16.2686 17.9654 16.1708 15.3582 16.1589 14.3231H16.1619Z" fill="#3A01AB"/>
<path d="M14.5318 3.77571C13.9391 1.18932 12.9494 0.607979 12.9494 0.607979C11.4944 -0.510217 9.50312 0.36773 9.50312 0.36773C8.85416 0.566455 8.49561 1.08255 8.49561 1.08255C9.22457 0.412221 10.8307 0.450779 10.8307 0.450779C12.5405 0.705858 13.2161 2.59819 13.2161 2.59819L14.4014 6.32947L15.3911 9.65143C15.646 10.737 15.5304 11.3836 15.24 11.8137L15.9808 11.1167C16.529 10.2001 16.0845 8.98704 16.0845 8.98704L14.5318 3.76978V3.77571Z" fill="#3A01AB"/>
<path d="M9.65716 2.65479C9.65716 2.65479 11.1299 2.31666 12.087 1.74125C12.0189 1.61964 11.9626 1.56032 11.8855 1.45947C11.7077 1.55439 11.1951 1.87175 10.072 2.23657C9.03783 2.60733 7.62139 2.84461 7.13542 2.78233C7.13542 2.78233 6.98132 2.98698 7.05244 3.0463C7.27469 3.23613 9.65419 2.65479 9.65419 2.65479H9.65716Z" fill="#3A01AB"/>
<path d="M9.58006 1.94593C10.7061 1.72645 11.3462 1.36162 11.5477 1.26968C10.7831 0.712061 9.97714 0.82477 9.97714 0.82477C9.97714 0.82477 9.04371 1.0235 8.68812 1.07985C8.63478 1.08875 8.57848 1.10358 8.52218 1.12137C7.7458 1.4862 7.47021 2.33448 7.47021 2.33448L7.73395 2.30482L9.58006 1.94593Z" fill="#3A01AB"/>
<path d="M13.4564 5.43094L13.3468 5.08984C11.2103 6.58473 8.05437 6.64108 7.81435 6.61439C7.57432 6.58473 7.65433 6.38897 7.65433 6.38897L7.64544 6.27626C7.5032 6.34151 7.51802 6.54024 7.51802 6.54024L7.61284 6.81311C8.17883 7.09489 10.8547 6.96438 13.4594 5.4339L13.4564 5.43094Z" fill="#3A01AB"/>
<path d="M7.26883 4.48457C7.90297 4.51423 9.02012 4.25915 9.02012 4.25915C10.5462 4.00407 12.1464 3.31002 12.659 3.0757L12.5553 2.75537C11.3878 3.45239 9.08531 3.93585 9.08531 3.93585C9.08531 3.93585 7.65405 4.20576 7.36662 4.18797C7.07918 4.17017 7.23623 3.94179 7.23623 3.94179L7.19178 3.82908C6.90435 4.02484 6.96658 4.30068 7.04066 4.38966C7.11474 4.47864 7.27179 4.48457 7.27179 4.48457H7.26883Z" fill="#3A01AB"/>
<path d="M13.2399 4.77825L13.1273 4.42529C12.2887 5.01257 8.84837 5.96763 7.83494 5.91128C7.38748 5.88755 7.39341 5.68883 7.39341 5.68883L7.38452 5.60874L7.36081 5.62357C7.15042 5.69476 7.39045 6.12187 7.39045 6.12187L7.58009 6.22568C8.13423 6.41847 11.0234 6.08627 13.2429 4.77825H13.2399Z" fill="#3A01AB"/>
<path d="M9.75507 5.19074C10.6618 5.00091 12.6383 4.25051 13.0087 4.06068L12.7865 3.37256C11.6041 3.98653 9.53282 4.54414 9.53282 4.54414C8.49568 4.81405 7.41112 4.88227 7.24518 4.83482C7.07924 4.78736 7.1711 4.56194 7.1711 4.56194L7.15628 4.46703C6.98737 4.69245 7.04368 4.84965 7.04368 4.84965L7.21258 5.3865C7.76375 5.6831 8.66755 5.41616 9.75507 5.18777V5.19074Z" fill="#3A01AB"/>
<path d="M9.15645 7.5931C9.20979 7.58124 9.26313 7.57531 9.31943 7.57531C9.76985 7.51895 10.1491 7.4448 10.1491 7.4448C12.013 7.00583 13.388 6.31771 13.6962 6.14271L13.5658 5.7334C10.7448 7.2876 8.78308 7.18379 8.18153 7.21642C7.90891 7.23125 7.91188 7.02956 7.91188 7.02956L7.87632 6.90498C7.7163 6.97024 7.74001 7.16896 7.74001 7.16896L7.81409 7.43294C7.88224 7.67319 8.54898 7.65836 9.15052 7.5931H9.15645Z" fill="#3A01AB"/>
<path d="M12.4544 2.41748V2.41155C12.407 2.31663 12.3596 2.22469 12.3122 2.13867C10.3594 3.21238 7.41688 3.70474 7.18575 3.51195C7.11166 3.44966 7.27168 3.23017 7.27168 3.23017L7.20056 3.22424C7.17093 3.24797 7.13833 3.26577 7.02869 3.36958C6.88646 3.50602 7.06722 3.76703 7.06722 3.76703C7.92064 4.05473 10.2646 3.52974 12.4544 2.41451V2.41748Z" fill="#3A01AB"/>
<path d="M13.9215 6.88696L13.8089 6.54883C12.6769 7.26958 10.9286 7.71745 10.2529 7.87465L10.3715 8.20388C12.4457 7.78863 13.634 7.07678 13.9215 6.88696Z" fill="#3A01AB"/>
<path d="M14.3839 8.27208L14.2891 7.98438L13.5749 8.36699C12.7245 8.79707 11.3703 9.1174 10.7539 9.25087L10.8813 9.5979C13.1186 9.05215 14.1143 8.45894 14.3869 8.27505L14.3839 8.27208Z" fill="#3A01AB"/>
<path d="M12.0962 8.49769C13.1897 8.19219 13.9601 7.72948 14.1587 7.60195L14.0431 7.25195C13.9335 7.32314 13.5956 7.52779 12.7481 7.88075C11.9718 8.20405 10.9939 8.4443 10.499 8.55404L10.6205 8.88624C10.902 8.81802 11.3791 8.69641 12.0962 8.49472V8.49769Z" fill="#3A01AB"/>
<path d="M14.0991 1.28155C14.1436 1.34976 14.1821 1.41205 14.2147 1.46841C14.677 1.20739 14.7066 1.18367 14.6533 0.981975C14.5969 0.774352 14.274 0.830707 14.274 0.830707L14.3332 0.887062C14.8192 0.887062 14.2917 1.18367 14.1021 1.28155H14.0991Z" fill="#3A01AB"/>
<path d="M14.7925 1.43861C14.8962 1.51573 14.5347 1.75301 14.4043 1.83309L14.5288 2.14749L14.8932 1.89835C15.2103 1.70555 15.0177 1.45344 15.0177 1.45344C14.9436 1.3348 14.6769 1.30811 14.6769 1.30811L14.7125 1.35556L14.7954 1.44158L14.7925 1.43861Z" fill="#3A01AB"/>
<path d="M14.6831 2.53614L14.8728 3.19757L15.2935 2.94249C15.5632 2.81198 15.5128 2.53911 15.5128 2.53911C15.5128 2.53911 15.3973 2.20098 15.3558 2.09717C15.3143 1.99335 15.1543 2.05564 15.1543 2.05564C15.4624 2.13869 14.8935 2.43529 14.6831 2.53614Z" fill="#3A01AB"/>
<path d="M15.7438 3.77881L15.7675 3.84703C16.0816 3.91821 15.409 4.27414 15.2134 4.37498L15.2845 4.6271C15.4208 4.54405 15.8357 4.286 15.8357 4.286C16.052 4.14956 16.0135 4.04872 16.0135 4.04872L15.9631 3.88559C15.9068 3.76694 15.7408 3.78177 15.7408 3.78177L15.7438 3.77881Z" fill="#3A01AB"/>
<path d="M15.9781 4.49077C15.9781 4.49077 16.1174 4.44628 16.0522 4.58865C15.9989 4.70729 15.5573 4.97127 15.4092 5.06025L15.4862 5.33313L16.0196 4.95347C16.1974 4.82593 16.1974 4.69543 16.1974 4.69543L16.1411 4.4967C16.0996 4.38696 15.9633 4.44925 15.9633 4.44925L15.9781 4.49374V4.49077Z" fill="#3A01AB"/>
<path d="M16.1497 5.1285L16.1793 5.13443C16.449 5.26197 15.8119 5.62679 15.6074 5.73653L15.6963 6.045C15.8474 5.95899 16.3482 5.66238 16.3808 5.45476C16.4194 5.20858 16.3571 5.16705 16.3571 5.16705C16.289 5.05434 16.126 5.04248 16.126 5.04248L16.1527 5.1285H16.1497Z" fill="#3A01AB"/>
<path d="M16.3069 5.77197L16.3187 5.8135H16.3365C16.618 5.84316 16.4106 6.03002 16.4106 6.03002L15.812 6.45416L15.895 6.74187C15.978 6.68551 16.2298 6.51052 16.3958 6.38891C16.4017 6.38594 16.4076 6.38001 16.4106 6.37704C16.6091 6.23171 16.6002 6.06561 16.6002 6.06561L16.5676 5.86392C16.5262 5.75121 16.3039 5.77494 16.3039 5.77494L16.3069 5.77197Z" fill="#3A01AB"/>
<path d="M16.4523 6.51032L16.4789 6.52218C16.6953 6.61116 16.5234 6.7743 16.5234 6.7743L16.0107 7.13615L16.0996 7.44759C16.2863 7.33191 16.4226 7.23403 16.5204 7.15098C16.4997 7.14505 16.4849 7.14505 16.4849 7.14505L16.6301 7.0531C16.8227 6.86328 16.7871 6.78319 16.7871 6.78319L16.7782 6.59337C16.7367 6.36498 16.473 6.38575 16.473 6.38575H16.3989C16.3989 6.38575 16.4108 6.40947 16.4108 6.41244L16.4523 6.51032Z" fill="#3A01AB"/>
<path d="M15.5098 3.03734H15.5394C15.7705 3.10555 15.5276 3.28055 15.5276 3.28055L14.9912 3.59199L15.0801 3.90342L15.5839 3.56826C15.7913 3.41106 15.7854 3.25386 15.7854 3.25386L15.7172 3.06403C15.6046 2.93352 15.4831 2.97802 15.4831 2.97802L15.5127 3.03437L15.5098 3.03734Z" fill="#3A01AB"/>
<path d="M13.7227 0.771379C13.779 0.836632 13.8323 0.901885 13.8797 0.967138C14.4338 0.608247 14.096 0.468843 13.9005 0.421387C14.2412 0.507402 13.8679 0.70316 13.7227 0.771379Z" fill="#3A01AB"/>
<path d="M13.5897 0.240059L13.5216 0.198534C13.5068 0.18667 13.489 0.177772 13.4712 0.165908L13.4505 0.154044C13.1245 -0.0268847 12.7037 -0.00908849 12.4785 0.0146398C12.7452 0.0769266 13.0949 0.195568 13.3823 0.429885L13.5868 0.240059H13.5897Z" fill="#3A01AB"/>
<path d="M17.1632 8.7558L16.9528 7.29948C16.9528 7.29948 16.9054 7.07702 16.6535 7.04736C16.6535 7.04736 16.5795 7.11558 16.535 7.15117C16.6417 7.1749 16.9232 7.26982 16.6298 7.55159L16.2031 7.80074L16.2713 8.03802C16.2713 8.03802 16.9676 10.1765 16.4313 10.8053C16.4313 10.8053 17.2077 10.0549 17.1662 8.7558H17.1632Z" fill="#3A01AB"/>
<path d="M8.09247 8.02006C8.09247 7.85989 8.11025 7.82726 8.11025 7.82726L8.08655 7.73828L8.05691 7.78574C8.05691 7.78574 7.87912 8.00819 8.07469 8.25734C8.18137 8.39378 8.40658 8.42344 8.5903 8.42344L8.48363 8.11497C8.29694 8.1209 8.08655 8.10904 8.08655 8.02006H8.09247Z" fill="#3A01AB"/>
<path d="M8.33247 8.51258L8.31765 8.40283L8.29987 8.43249C8.29987 8.43249 8.23764 8.54224 8.26728 8.68164C8.29691 8.82401 8.38581 8.92782 8.38581 8.92782C8.38581 8.92782 8.48952 9.07909 8.82437 9.08502L8.71769 8.77655C8.51323 8.76469 8.25839 8.71427 8.33247 8.51258Z" fill="#3A01AB"/>
<path d="M8.61428 9.26909L8.58465 9.10596L8.56983 9.14155C8.56983 9.14155 8.48094 9.31655 8.53724 9.48858C8.58465 9.63095 8.73874 9.78518 9.06174 9.77332L8.95506 9.46485C8.78319 9.46485 8.56391 9.43815 8.61428 9.26909Z" fill="#3A01AB"/>
<path d="M14.4874 8.58351C12.5612 9.88857 10.6884 10.0131 10.6203 10.0191C10.4632 9.58603 10.0839 8.52715 10.0099 8.21869C9.94171 7.93395 9.65131 7.78564 9.37276 7.78564C9.31942 7.79158 9.26312 7.79751 9.20682 7.80641C9.1594 7.81827 9.11495 7.8331 9.07347 7.85386C8.74751 8.017 8.87197 8.3225 8.87197 8.3225L9.42906 10.1021L8.90456 10.1407C8.90456 10.1407 9.0705 10.8347 9.26608 11.0957C9.26608 11.0987 9.27201 11.1017 9.27793 11.1076C9.60686 11.7483 10.2766 12.555 11.5774 12.7211C13.6695 12.9881 14.271 12.3682 14.8163 11.6919C15.2548 10.8763 14.4903 8.58648 14.4903 8.58648L14.4874 8.58351Z" fill="#3A01AB"/>
<path d="M4.21673 33.1396L0 39.3594L13.8177 39.9497L14.7423 33.2968L4.21673 33.1396Z" fill="#3A01AB"/>
<path d="M25.5729 39.5877L22.1059 33.4035L15.4148 33.3057L14.4873 39.9763L15.0651 40L25.5729 39.5877Z" fill="#3A01AB"/>
<path d="M8.76231 14.8806C8.76231 14.8806 8.73267 14.5098 8.89862 14.4505C9.06456 14.3912 9.18013 14.406 9.41719 14.67L8.76527 14.8806H8.76231Z" fill="#3A01AB"/>
<path d="M11.4469 14.4892C11.4469 14.4892 11.4469 14.1125 11.1091 14.0087C10.7772 13.9079 10.5728 14.2312 10.5728 14.4477V14.4833H10.5757C10.5757 14.4833 11.1713 14.4655 11.438 14.5308H11.4499V14.4892H11.4469Z" fill="#3A01AB"/>
<path d="M4.95138 17.4195C4.95138 17.4195 4.8773 17.5055 4.95138 17.5974C5.02546 17.6894 5.07288 17.7191 5.07288 17.7191L5.10844 17.7635L5.43143 17.3542L5.46995 17.3068L5.26549 17.1703C5.26549 17.1703 5.15881 17.0754 4.95138 17.4165V17.4195Z" fill="#3A01AB"/>
<path d="M6.76209 16.0345C6.76209 16.0345 6.62282 15.812 6.76209 15.7023C6.90137 15.5925 7.00212 15.6014 7.00212 15.6014C7.00212 15.6014 7.09991 15.5451 7.1977 15.7379L6.76209 16.0345Z" fill="#3A01AB"/>
<path d="M4.26427 19.2438L4.24353 19.229C4.22279 19.2112 4.11907 19.14 3.97091 19.2023C3.802 19.2735 3.79608 19.5286 3.79608 19.5286C3.79608 19.5286 3.76052 19.6472 3.9798 19.7866L3.99758 19.7985L4.00647 19.8044C4.00647 19.8044 4.24946 19.2705 4.26131 19.2527V19.2468L4.26427 19.2438Z" fill="#3A01AB"/>
<path d="M3.75743 20.9404H3.71891C3.45518 20.9464 3.40184 21.0828 3.40184 21.0828C3.40184 21.0828 3.39591 21.3112 3.4048 21.4536C3.41369 21.5959 3.69816 21.6167 3.69816 21.6167H3.72483C3.69816 21.3824 3.76039 20.9464 3.76039 20.9464V20.9404H3.75743Z" fill="#3A01AB"/>
<path d="M7.13867 15.9128C7.13867 15.9128 7.15349 15.9039 7.15941 15.8979C7.1446 15.9068 7.13867 15.9128 7.13867 15.9128Z" fill="#3A01AB"/>
<path d="M4.0095 22.7406C3.88801 22.3609 3.87319 22.0584 3.87912 21.9575C3.87912 21.9575 3.79022 22.3105 3.88505 22.8177C3.89394 22.8088 3.93839 22.7702 4.0095 22.7406Z" fill="#3A01AB"/>
<path d="M4.94282 24.2444C4.94282 24.2444 4.57537 24.3749 4.64056 24.9414C4.70576 25.508 5.25692 25.1728 5.25692 25.1728C5.25692 25.1728 4.99319 25.0275 5.18581 24.6389C5.29248 24.4253 5.35471 24.1673 4.93985 24.2444H4.94282Z" fill="#3A01AB"/>
<path d="M6.22295 25.5908C6.35333 26.0891 6.79782 25.7273 6.74152 25.6828C6.68521 25.6383 6.71188 25.5345 6.80671 25.3179C6.90153 25.1014 6.91931 24.8671 6.78893 24.79C6.39778 24.5586 6.09256 25.0925 6.22295 25.5908Z" fill="#3A01AB"/>
<path d="M8.81869 25.2115C8.91944 25.3302 8.98464 25.4933 8.83351 25.5971C8.64979 25.7247 8.34161 25.5853 8.229 25.3628C8.12233 25.1552 8.05713 24.8171 8.29123 24.7014C8.68535 24.5056 8.71794 25.0899 8.81869 25.2115Z" fill="#3A01AB"/>
<path d="M10.8012 23.9597C10.8189 24.0961 11.4057 24.4668 10.8249 24.6478C10.8101 24.6537 10.7478 24.6478 10.7093 24.624C10.5937 24.5529 10.3537 24.3897 10.2559 24.1732C9.79959 23.2775 10.6204 23.1737 10.8012 23.9567V23.9597Z" fill="#3A01AB"/>
<path d="M11.8443 22.0467C11.8443 22.0467 11.7583 22.1328 11.8532 22.2929C11.948 22.4531 12.2473 22.4857 12.4518 22.6073C12.6384 22.72 12.5466 23.1353 12.677 22.9662C12.8073 22.7972 12.9229 22.7734 12.9081 22.4056C12.9081 22.4056 12.8903 22.1891 12.5792 22.0764C12.268 21.9637 12.0132 21.8213 11.8443 22.0467Z" fill="#3A01AB"/>
<path d="M12.9079 19.9942C12.9079 19.9942 13.4621 19.6917 13.9451 20.0506C14.4251 20.4094 13.9925 20.9344 13.7377 20.7476C13.6547 20.6853 13.4472 20.4272 12.9642 20.4569C12.9642 20.4569 12.4516 20.3056 12.9079 19.9942Z" fill="#3A01AB"/>
<path d="M13.4268 18.1075C13.4268 18.1075 13.3409 18.2973 13.4357 18.4279C13.5305 18.5584 13.7083 18.4753 13.7083 18.4753C13.7083 18.4753 14.135 18.33 14.2565 18.6414C14.301 18.68 14.4314 18.8609 14.5084 18.5139C14.6862 17.6982 13.6046 17.6478 13.4268 18.1075Z" fill="#3A01AB"/>
<path d="M13.5035 16.064C13.5035 16.064 12.4486 16.6246 12.9968 16.8708C13.1835 16.9568 13.6872 16.5564 13.6872 16.5564C13.6872 16.5564 14.0251 16.4822 14.0784 16.7432L14.114 16.7106C14.114 16.7106 14.2029 15.7971 13.5035 16.067V16.064Z" fill="#3A01AB"/>
<path d="M12.0811 15.2425C12.0811 15.2425 12.2974 14.6879 12.6471 14.7443C12.9967 14.8006 12.9523 14.8926 12.9701 15.3345L12.8634 15.2989C12.8634 15.2989 12.656 15.1862 12.4308 15.554C12.4308 15.554 12.2233 15.8269 12.0544 15.7616C11.8855 15.6964 12.084 15.2425 12.084 15.2425H12.0811Z" fill="#3A01AB"/>
<path d="M12.7212 15.4917C12.9464 15.6904 13.062 15.8268 13.2042 16.0582C13.302 15.9662 13.4205 15.9395 13.4916 15.9188C13.3376 15.723 13.2101 15.6014 12.9968 15.4294C12.9049 15.4175 12.7982 15.4472 12.7212 15.4917Z" fill="#3A01AB"/>
<path d="M8.37695 15.2219C8.99628 14.9846 9.84377 14.777 10.9224 14.7829C11.3758 14.7829 11.7551 14.8749 12.0751 15.0202C12.1107 14.9668 12.1462 14.9283 12.1729 14.8986C10.8661 14.341 9.39039 14.7622 8.37695 15.2219Z" fill="#3A01AB"/>
<path d="M4.3352 23.6455C4.29964 23.693 4.23149 23.8205 4.29668 24.0014C4.37076 24.129 4.47448 24.2802 4.57226 24.4048C4.58115 24.2862 4.64635 24.215 4.69376 24.1794C4.5456 24.0103 4.42706 23.8235 4.3352 23.6485V23.6455Z" fill="#3A01AB"/>
<path d="M4.17841 23.4852C4.56363 23.0432 4.37102 22.7377 3.98283 22.9038C3.98283 22.9038 3.4287 23.1767 3.57983 23.7017C3.57983 23.7017 3.58872 23.9923 4.12507 23.9923C4.0421 23.7402 4.13692 23.5504 4.18137 23.4822L4.17841 23.4852Z" fill="#3A01AB"/>
<path d="M5.30724 24.71C5.25983 24.7485 5.19168 24.8494 5.30724 25.0481C5.51171 25.1667 5.73396 25.3032 6.00954 25.4099C6.00954 25.3002 6.03917 25.1964 6.07177 25.1104C5.7784 24.9977 5.52356 24.8642 5.30428 24.71H5.30724Z" fill="#3A01AB"/>
<path d="M8.06587 25.3836C7.7488 25.4192 7.41691 25.4103 7.05836 25.3599C6.96353 25.4488 6.95761 25.5467 6.99909 25.6535C7.38432 25.7128 7.79917 25.7217 8.24959 25.6505C8.13106 25.5675 8.08365 25.4607 8.06587 25.3866V25.3836Z" fill="#3A01AB"/>
<path d="M10.2971 24.5854C9.9208 24.8376 9.50891 25.0482 9.06738 25.1905C9.1148 25.2647 9.16813 25.3803 9.14146 25.4693C9.58299 25.327 10.0482 25.1104 10.5312 24.799C10.4305 24.7338 10.3534 24.6566 10.2942 24.5854H10.2971Z" fill="#3A01AB"/>
<path d="M12.2085 22.7612C11.8944 23.1676 11.521 23.5828 11.0913 23.9536C11.1476 24.0099 11.2395 24.1137 11.2691 24.2265C11.4676 24.0722 11.6691 23.9061 11.8706 23.7193C11.8706 23.7193 12.0929 23.5324 12.4189 23.1438C12.41 22.9095 12.2974 22.8057 12.2085 22.7612Z" fill="#3A01AB"/>
<path d="M13.3705 20.8955C13.2698 21.118 13.086 21.5036 12.8193 21.9455C12.8964 21.9752 13.0119 22.0523 13.0564 22.2362C13.166 22.0582 13.2757 21.8595 13.3883 21.64H13.3853C13.5098 21.3968 13.572 21.2366 13.6076 21.1121C13.5661 20.9489 13.412 20.9074 13.3705 20.8926V20.8955Z" fill="#3A01AB"/>
<path d="M13.8681 18.6533C13.8681 18.9855 13.8355 19.3741 13.7466 19.7893C13.8029 19.7982 13.9214 19.8279 14.0488 19.9435C14.1259 19.6232 14.2 19.2495 14.2355 18.852C14.117 18.6859 13.951 18.6563 13.871 18.6533H13.8681Z" fill="#3A01AB"/>
<path d="M14.2205 17.719C14.2116 17.6478 14.2027 17.5796 14.1879 17.5084C14.1523 17.277 14.0012 16.8825 13.9864 16.8262C13.8916 16.6809 13.7227 16.7817 13.5923 16.8173C13.7493 17.2474 13.7612 17.5588 13.7819 17.6685C13.8975 17.6359 14.0575 17.627 14.2175 17.7219L14.2205 17.719Z" fill="#3A01AB"/>
<path d="M6.21081 18.6384C6.21081 18.6384 5.04032 20.1867 5.50259 21.56C5.96782 22.9333 7.57984 23.3307 9.41411 21.9367C11.2484 20.5426 11.604 18.3952 10.872 17.3334C10.1431 16.2715 7.68948 16.5148 6.20785 18.6384H6.21081Z" fill="#3A01AB"/>
<path d="M13.1156 18.6507C13.0593 18.6091 13.003 18.532 12.9912 18.3808C12.9438 18.102 13.163 17.9359 13.3171 17.8558C13.2756 17.5354 13.2016 17.2922 13.1038 17.0134C12.7897 17.2092 12.4104 16.7643 12.84 16.3728C12.7067 16.1414 12.6089 15.9723 12.4281 15.8122C12.0192 16.1622 11.8533 15.7944 11.8503 15.7528C11.8385 15.6609 11.8503 15.5393 11.8859 15.477C10.7954 15.0321 8.9552 15.2249 7.68099 15.9338C7.46763 16.0584 7.32244 16.1562 7.27206 16.1889C7.26613 16.1948 7.25724 16.1978 7.25132 16.2037C7.25132 16.2037 5.65115 17.0638 4.45399 19.9201C4.45399 19.9201 4.00654 21.3023 4.39473 22.6341C4.46584 22.6133 4.55178 22.6133 4.65253 22.6667C4.86885 22.7853 4.67031 23.1264 4.61993 23.2035C4.75032 23.4616 4.92219 23.7078 5.1474 23.9302C5.15629 23.9273 5.16814 23.9243 5.17703 23.9184C5.36668 23.8056 5.61856 23.8768 5.60078 24.0993C5.59485 24.1675 5.57707 24.2268 5.55633 24.2713C5.67782 24.3573 5.81117 24.4374 5.95637 24.5116C6.06305 24.5649 6.16972 24.6154 6.27344 24.6569C6.31492 24.5768 6.5431 24.1794 6.93425 24.3544C6.95499 24.3633 6.97573 24.3722 6.99944 24.384C7.03203 24.3989 7.05574 24.4196 7.07352 24.4433C7.07352 24.4433 7.18316 24.5531 7.1239 24.8853C7.44097 24.9298 7.75211 24.9268 8.06029 24.8853C8.02177 24.7014 8.03362 24.4374 8.34773 24.3069C8.34773 24.3069 8.37439 24.301 8.40699 24.298C8.44255 24.2921 8.47811 24.2891 8.51959 24.298C8.51959 24.298 8.71517 24.295 8.89 24.6777V24.6836C9.29597 24.5412 9.68712 24.3366 10.0575 24.0934C9.9953 23.9184 9.85603 23.4379 10.1346 23.2273C10.4724 22.9692 10.7124 23.3222 10.7746 23.5506C11.1984 23.1857 11.474 22.8773 11.8029 22.468C11.4621 22.3019 11.5599 21.9489 11.5599 21.9489C11.6577 21.676 12.0518 21.7087 12.3037 21.8036C12.6148 21.3587 12.8074 21.0413 12.9526 20.7002C12.7452 20.6735 12.1437 20.5193 12.4015 20.1248C12.6415 19.757 13.0741 19.6917 13.246 19.7006C13.3171 19.3655 13.3497 19.0837 13.3586 18.7545C13.2993 18.7515 13.1986 18.7308 13.1156 18.6477V18.6507ZM10.4605 21.7769C8.69146 24.0044 5.25704 24.126 4.87181 21.7769C4.48659 19.4278 6.36234 17.6393 6.36234 17.6393C9.30486 14.7978 11.5836 16.2541 11.7762 17.4465C11.9688 18.6388 12.2326 19.5494 10.4635 21.7769H10.4605Z" fill="#3A01AB"/>
<path d="M42.496 36.2537H39.6394L38.7712 33.5754H34.104L33.2358 36.2537H30.397L34.9545 23.3633H38.0481L42.496 36.2537ZM35.3516 29.7729L34.8271 31.3657H38.0659L37.5414 29.7729L36.4569 26.0624L35.3545 29.7729H35.3516Z" fill="#3A01AB"/>
<path d="M54.379 29.8085L56.0443 23.3633H58.7942L55.0309 36.2537H52.4617L50.4911 27.4564L48.5028 36.2537H45.8981L42.1377 23.3633H44.9765L46.6419 29.8085L47.2582 32.3978L47.7827 29.8085L49.1932 23.3633H51.8335L53.244 29.8085L53.7685 32.3978L54.3849 29.8085H54.379Z" fill="#3A01AB"/>
<path d="M70.5316 36.2537H67.6751L66.8068 33.5754H62.1397L61.2714 36.2537H58.4326L62.9901 23.3633H66.0838L70.5316 36.2537ZM63.3872 29.7729L62.8627 31.3657H66.1016L65.5771 29.7729L64.4925 26.0624L63.3902 29.7729H63.3872Z" fill="#3A01AB"/>
<path d="M79.7714 30.0635C80.4114 30.197 80.8678 30.4343 81.1463 30.7783C81.4249 31.1224 81.6056 31.5851 81.6886 32.1635L82.2131 36.2537H79.4632L79.155 32.9406C79.0957 32.3503 78.9179 31.9203 78.6216 31.6563C78.3253 31.3923 77.8541 31.2588 77.2022 31.2588H74.8316V36.2566H72.1558V23.3662H78.1593C79.5817 23.3662 80.6189 23.6984 81.2708 24.3628C81.9108 25.0391 82.2279 25.8903 82.2279 26.9166C82.2279 28.5835 81.4071 29.6335 79.7684 30.0665L79.7714 30.0635ZM74.8346 25.6115V29.0877H77.4037C78.1386 29.0877 78.6898 28.9275 79.0572 28.6072C79.4247 28.2869 79.6084 27.8449 79.6084 27.2755C79.6084 26.7564 79.4543 26.35 79.1461 26.0534C78.8379 25.7568 78.3786 25.6085 77.7623 25.6085H74.8316L74.8346 25.6115Z" fill="#3A01AB"/>
<path d="M84.4028 23.3633H89.1411C93.2156 23.3633 95.2543 25.5107 95.2543 29.8085C95.2543 31.861 94.7684 33.4478 93.7994 34.569C92.8274 35.6901 91.3962 36.2537 89.5026 36.2537H84.4028V23.3633ZM87.0787 33.9906H89.1589C90.4005 33.9906 91.2806 33.6673 91.7992 33.0207C92.3177 32.3741 92.5755 31.3034 92.5755 29.8085C92.5755 28.3136 92.3029 27.1895 91.7606 26.5132C91.1946 25.8607 90.2049 25.5344 88.7944 25.5344H87.0757V33.9876L87.0787 33.9906Z" fill="#3A01AB"/>
<path d="M101.998 36.669C100.336 36.669 99.0174 36.2775 98.0454 35.4915C97.0735 34.7085 96.5727 33.6259 96.5342 32.2526H99.1567C99.1922 32.9645 99.4589 33.5132 99.9538 33.8988C100.449 34.2843 101.124 34.4771 101.981 34.4771C102.716 34.4771 103.293 34.3348 103.717 34.053C104.138 33.7683 104.351 33.3738 104.351 32.8666C104.351 32.4454 104.2 32.1221 103.898 31.8967C103.596 31.6742 103.089 31.4725 102.378 31.2916L100.007 30.6954C98.9937 30.4433 98.2144 30.0073 97.6662 29.3933C97.1179 28.7764 96.8424 28.0171 96.8424 27.1125C96.8424 25.9913 97.2572 25.0362 98.0899 24.2532C98.9107 23.4702 100.096 23.0757 101.652 23.0757C103.207 23.0757 104.449 23.4613 105.377 24.2354C106.304 25.0214 106.811 26.0447 106.897 27.3142H104.292C104.209 26.6735 103.931 26.1722 103.459 25.8104C102.988 25.4485 102.393 25.2676 101.67 25.2676C101.018 25.2676 100.499 25.4129 100.114 25.7006C99.7286 25.9913 99.536 26.365 99.536 26.8218C99.536 27.5336 100.037 28.0171 101.038 28.2692L103.608 28.9039C105.946 29.4705 107.116 30.7073 107.116 32.6145C107.116 33.8691 106.66 34.8598 105.75 35.5835C104.84 36.3072 103.59 36.669 101.998 36.669Z" fill="#3A01AB"/>
<path d="M44.8729 19.7627H41.6489L40.671 16.7403H35.4082L34.4303 19.7627H31.2271L36.3683 5.22314H39.8561L44.8759 19.7627H44.8729ZM36.8158 12.4514L36.2231 14.2488H39.8739L39.2812 12.4514L38.0574 8.2663L36.8128 12.4514H36.8158Z" fill="#3A01AB"/>
<path d="M56.9718 5.22314V7.91927H49.7295V11.0425H56.0531V13.7386H49.7295V19.7627H46.71V5.22314H56.9718Z" fill="#3A01AB"/>
<path d="M66.9908 12.7806C67.7109 12.9319 68.2295 13.1988 68.5406 13.5874C68.8547 13.9759 69.0562 14.495 69.154 15.1505L69.7467 19.7656H66.6471L66.3004 16.0284C66.2322 15.3611 66.0307 14.8776 65.6989 14.578C65.364 14.2785 64.8306 14.1302 64.0987 14.1302H61.4258V19.7656H58.4062V5.22314H65.1803C66.7864 5.22314 67.9539 5.59687 68.6888 6.34727C69.4089 7.10954 69.7704 8.07054 69.7704 9.2273C69.7704 11.1048 68.8458 12.2912 66.9968 12.7806H66.9908ZM61.4199 7.75614V11.6772H64.318C65.1477 11.6772 65.77 11.4963 66.1848 11.1374C66.5997 10.7756 66.8071 10.2773 66.8071 9.63661C66.8071 9.0523 66.6323 8.59256 66.2856 8.2574C65.9389 7.92521 65.4173 7.75614 64.7239 7.75614H61.4199Z" fill="#3A01AB"/>
<path d="M75.2315 19.7627H72.2119V5.22314H75.2315V19.7627Z" fill="#3A01AB"/>
<path d="M85.6357 13.7594L87.8581 5.22314H92.1638V19.7627H89.3487V14.3111L89.6954 7.20446L88.6968 11.5942L86.5751 19.7627H83.4933L81.3301 11.4518L80.3315 7.1837L80.6782 14.3111V19.7627H77.8838V5.22314H82.1272L84.3911 13.7594L84.9838 16.6602L85.6357 13.7594Z" fill="#3A01AB"/>
<path d="M107.65 19.7627H104.426L103.448 16.7403H98.1851L97.2072 19.7627H94.0039L99.1452 5.22314H102.633L107.653 19.7627H107.65ZM99.5926 12.4514L99 14.2488H102.651L102.058 12.4514L100.834 8.2663L99.5897 12.4514H99.5926Z" fill="#3A01AB"/>
<path d="M106.103 5.22314H107.175V5.46933H106.778V6.55193H106.503V5.46933H106.103V5.22314Z" fill="#3A01AB"/>
<path d="M108.041 6.00321L108.245 5.22314H108.639V6.55193H108.381V6.05364L108.414 5.40407L108.322 5.80449L108.13 6.55193H107.848L107.65 5.79262L107.558 5.40407L107.59 6.05364V6.55193H107.335V5.22314H107.724L107.931 6.00321L107.984 6.26719L108.044 6.00321H108.041Z" fill="#3A01AB"/>
</g>
<defs>
<clipPath id="clip0_7126_2948">
<rect width="108.636" height="40" fill="white"/>
</clipPath>
</defs>
</svg>
