<svg width="896" height="190" viewBox="0 0 896 190" fill="none" xmlns="http://www.w3.org/2000/svg">
<g opacity="0.3">
<path d="M97.9394 108.646L126.032 0H180.415V185.062H144.847V115.663L149.229 25.212L136.6 81.0944L109.795 185.062H70.8772L43.5572 79.275L30.9282 24.9521L35.3097 115.663V185.062H0V0H53.6089L82.2175 108.646L89.6918 145.554L97.9394 108.646Z" fill="#D9BBFC"/>
<path d="M248.992 33.2695H212.652V0H248.992V33.2695ZM248.992 185.062H212.652V50.9439H248.992V185.062Z" fill="#D9BBFC"/>
<path d="M378.567 178.044C367.999 186.101 353.566 190 335.525 190C317.226 190 303.05 186.101 293.256 178.304C282.947 170.506 277.019 159.59 275.215 145.034L308.463 143.735C310.782 157.77 320.318 164.528 336.813 164.528C344.03 164.528 349.958 163.228 354.339 160.629C358.463 158.03 360.783 154.391 360.783 149.713C360.783 143.215 354.855 138.796 343.257 136.197L316.968 130.999C291.194 125.8 278.308 112.804 278.308 91.751C278.308 78.2353 283.205 67.5787 292.999 59.5212C302.792 51.7237 315.937 47.565 332.432 47.565C348.412 47.565 361.556 51.4637 371.865 59.2613C382.175 67.0588 388.103 77.4555 389.907 90.4514L357.175 91.751C356.144 86.0328 353.566 81.3543 348.927 77.9754C344.288 74.8564 338.618 73.0369 331.917 73.0369C325.731 73.0369 321.092 74.3365 317.483 76.9357C313.875 79.5349 312.071 83.1737 312.071 87.3324C312.071 94.0903 316.968 98.7688 327.02 100.848L355.628 106.826C368.773 109.685 378.567 114.104 385.01 120.342C391.196 126.58 394.546 134.897 394.546 145.294C394.546 159.33 389.134 170.246 378.567 178.044Z" fill="#D9BBFC"/>
<path d="M517.754 178.044C507.186 186.101 492.753 190 474.712 190C456.413 190 442.237 186.101 432.443 178.304C422.134 170.506 416.206 159.59 414.402 145.034L447.65 143.735C449.969 157.77 459.505 164.528 476 164.528C483.217 164.528 489.145 163.228 493.526 160.629C497.65 158.03 499.97 154.391 499.97 149.713C499.97 143.215 494.042 138.796 482.444 136.197L456.155 130.999C430.381 125.8 417.495 112.804 417.495 91.751C417.495 78.2353 422.392 67.5787 432.186 59.5212C441.979 51.7237 455.124 47.565 471.619 47.565C487.599 47.565 500.743 51.4637 511.052 59.2613C521.362 67.0588 527.29 77.4555 529.094 90.4514L496.362 91.751C495.331 86.0328 492.753 81.3543 488.114 77.9754C483.475 74.8564 477.805 73.0369 471.104 73.0369C464.918 73.0369 460.279 74.3365 456.67 76.9357C453.062 79.5349 451.258 83.1737 451.258 87.3324C451.258 94.0903 456.155 98.7688 466.207 100.848L494.815 106.826C507.96 109.685 517.754 114.104 524.197 120.342C530.383 126.58 533.733 134.897 533.733 145.294C533.733 159.33 528.321 170.246 517.754 178.044Z" fill="#D9BBFC"/>
<path d="M594.569 33.2695H558.228V0H594.569V33.2695ZM594.569 185.062H558.228V50.9439H594.569V185.062Z" fill="#D9BBFC"/>
<path d="M735.483 169.207C722.854 182.722 706.617 189.48 686.514 189.48C666.41 189.48 649.915 182.722 637.544 169.207C624.657 155.951 618.472 139.056 618.472 118.523C618.472 98.249 624.657 81.3543 637.544 67.5787C650.173 54.3228 666.41 47.565 686.514 47.565C706.359 47.565 722.597 54.3228 735.483 67.5787C748.112 81.3543 754.556 98.249 754.556 118.523C754.556 139.056 748.112 155.951 735.483 169.207ZM662.544 149.453C668.472 157.25 676.462 160.889 686.514 160.889C696.565 160.889 704.555 157.25 710.741 149.453C716.411 142.175 719.504 131.778 719.504 118.523C719.504 105.527 716.411 95.13 710.741 87.5923C704.555 80.0547 696.565 76.1559 686.514 76.1559C676.462 76.1559 668.472 80.0547 662.544 87.5923C656.359 95.3899 653.524 105.527 653.524 118.523C653.524 131.518 656.359 141.915 662.544 149.453Z" fill="#D9BBFC"/>
<path d="M852.443 47.565C866.103 47.565 876.67 51.9836 884.402 60.301C892.134 68.8782 896 80.5746 896 95.13V185.062H859.659V103.447C859.659 96.1696 857.855 90.7114 854.505 86.5527C851.154 82.6539 846.515 80.5746 840.329 80.5746C832.597 80.5746 826.154 83.6936 821.515 89.6717C816.618 95.6498 814.298 103.447 814.298 113.324V185.062H777.957V50.9439H813.525L814.04 69.1382C822.546 54.8427 835.432 47.565 852.443 47.565Z" fill="#D9BBFC"/>
</g>
</svg>
