<svg width="896" height="216" viewBox="0 0 896 216" fill="none" xmlns="http://www.w3.org/2000/svg">
<g opacity="0.3">
<path d="M110 91.6005L137.059 0H183.235L112.059 210.386H70.8822L0 0H46.1764L74.1175 91.6005L92.0586 161.04L110 91.6005Z" fill="#D9BBFC"/>
<path d="M317.614 210.386H275.556C273.203 200.635 272.32 195.611 272.32 195.021C261.438 208.317 245.85 214.818 225.556 214.818C209.673 214.818 196.732 210.681 187.32 202.112C177.615 193.839 172.909 182.61 172.909 168.427C172.909 143.901 188.203 128.536 219.085 122.331L272.026 111.694V100.465C272.026 89.5321 263.497 83.9179 246.438 83.9179C237.909 83.9179 231.438 85.6908 227.32 88.6457C222.909 91.896 220.262 96.9193 219.379 104.011L181.438 103.42C183.791 70.9165 205.556 54.3694 246.144 54.3694C289.673 54.3694 311.732 73.2804 311.732 111.103V178.473C311.732 192.952 313.497 203.59 317.614 210.386ZM237.32 184.088C247.614 184.088 255.85 181.133 262.32 174.927C268.791 168.722 272.026 160.153 272.026 149.516V138.287L233.203 146.561C219.967 149.22 213.497 155.721 213.497 165.767C213.497 171.382 215.556 175.814 219.673 179.064C223.791 182.61 229.673 184.088 237.32 184.088Z" fill="#D9BBFC"/>
<path d="M388.391 210.386H346.92V0H388.391V210.386Z" fill="#D9BBFC"/>
<path d="M516.844 139.469V57.9152H558.315V210.386H517.726L517.138 189.702C507.138 206.249 492.726 214.227 473.315 214.227C457.432 214.227 445.374 209.499 436.55 199.748C427.727 190.293 423.609 176.996 423.609 160.153V57.9152H465.079V150.698C465.079 158.971 466.844 165.472 470.668 169.904C474.491 174.632 480.079 176.7 487.138 176.7C495.962 176.7 503.021 173.45 508.609 166.654C513.903 159.858 516.844 150.698 516.844 139.469Z" fill="#D9BBFC"/>
<path d="M738.351 139.469V146.561H628.351C628.939 158.085 632.469 166.949 638.939 173.45C645.116 179.951 653.351 183.201 663.939 183.201C678.645 183.201 688.351 176.7 693.351 163.404L734.527 166.358C729.233 182.61 720.704 195.021 708.939 203.294C696.88 211.568 682.175 215.705 664.822 215.705C640.116 215.705 620.998 208.022 606.881 192.657C592.763 177.291 585.704 157.789 585.704 133.559C585.704 110.512 592.469 91.6005 605.998 76.5308C619.528 61.7565 637.469 54.0739 660.41 54.0739C683.351 54.0739 701.88 61.7565 716.586 77.1217C730.998 92.7825 738.351 113.466 738.351 139.469ZM684.822 93.3735C678.939 87.4637 671.292 84.5089 661.881 84.5089C652.469 84.5089 644.528 87.4637 638.645 93.3735C632.469 99.8741 628.939 108.148 628.057 118.194H695.41C694.233 107.557 690.704 99.2832 684.822 93.3735Z" fill="#D9BBFC"/>
<path d="M877.765 202.408C865.706 211.568 849.235 216 828.647 216C807.765 216 791.589 211.568 780.412 202.703C768.647 193.839 761.883 181.428 759.824 164.881L797.765 163.404C800.412 179.36 811.294 187.042 830.118 187.042C838.353 187.042 845.118 185.565 850.118 182.61C854.824 179.655 857.471 175.518 857.471 170.2C857.471 162.813 850.706 157.789 837.471 154.834L807.471 148.925C778.059 143.015 763.353 128.241 763.353 104.306C763.353 88.9412 768.941 76.8263 780.118 67.6662C791.294 58.8016 806.294 54.0739 825.118 54.0739C843.353 54.0739 858.353 58.5062 870.118 67.3707C881.882 76.2353 888.647 88.0547 890.706 102.829L853.353 104.306C852.177 97.8057 849.235 92.487 843.941 88.6457C838.647 85.0999 832.177 83.0315 824.53 83.0315C817.471 83.0315 812.177 84.5089 808.059 87.4637C803.941 90.4186 801.883 94.5554 801.883 99.2832C801.883 106.966 807.471 112.285 818.941 114.648L851.588 121.445C866.588 124.695 877.765 129.718 885.118 136.81C892.177 143.902 896 153.357 896 165.176C896 181.133 889.823 193.543 877.765 202.408Z" fill="#D9BBFC"/>
</g>
</svg>
