<svg width="896" height="232" viewBox="0 0 896 232" fill="none" xmlns="http://www.w3.org/2000/svg">
<g opacity="0.3">
<path d="M119.279 98.3858L148.621 0H198.693L121.512 225.97H76.8618L0 0H50.0718L80.37 98.3858L99.8247 172.969L119.279 98.3858Z" fill="#D9BBFC"/>
<path d="M267.608 40.6238H222.64V0H267.608V40.6238ZM267.608 225.97H222.64V62.2052H267.608V225.97Z" fill="#D9BBFC"/>
<path d="M427.947 217.401C414.871 227.239 397.011 232 374.686 232C352.042 232 334.501 227.239 322.382 217.718C309.625 208.197 302.289 194.867 300.057 177.094L341.199 175.508C344.069 192.646 355.87 200.897 376.281 200.897C385.211 200.897 392.546 199.311 397.968 196.137C403.071 192.963 405.941 188.52 405.941 182.807C405.941 174.873 398.606 169.477 384.254 166.304L351.723 159.956C319.831 153.609 303.884 137.74 303.884 112.033C303.884 95.5294 309.944 82.5171 322.063 72.6785C334.182 63.1573 350.448 58.0793 370.859 58.0793C390.633 58.0793 406.898 62.8399 419.655 72.3611C432.412 81.8823 439.748 94.5773 441.98 110.446L401.476 112.033C400.201 105.051 397.011 99.3379 391.271 95.212C385.53 91.4035 378.513 89.1819 370.221 89.1819C362.567 89.1819 356.826 90.7688 352.361 93.9425C347.896 97.1163 345.664 101.56 345.664 106.637C345.664 114.889 351.723 120.602 364.162 123.141L399.563 130.44C415.828 133.932 427.947 139.327 435.921 146.944C443.575 154.561 447.721 164.717 447.721 177.412C447.721 194.55 441.023 207.88 427.947 217.401Z" fill="#D9BBFC"/>
<path d="M523.001 40.6238H478.032V0H523.001V40.6238ZM523.001 225.97H478.032V62.2052H523.001V225.97Z" fill="#D9BBFC"/>
<path d="M697.372 206.61C681.745 223.114 661.652 231.365 636.776 231.365C611.899 231.365 591.488 223.114 576.179 206.61C560.233 190.424 552.579 169.795 552.579 144.722C552.579 119.967 560.233 99.3379 576.179 82.5171C591.807 66.331 611.899 58.0793 636.776 58.0793C661.333 58.0793 681.426 66.331 697.372 82.5171C713 99.3379 720.973 119.967 720.973 144.722C720.973 169.795 713 190.424 697.372 206.61ZM607.115 182.49C614.451 192.011 624.338 196.454 636.776 196.454C649.214 196.454 659.101 192.011 666.755 182.49C673.771 173.603 677.599 160.908 677.599 144.722C677.599 128.854 673.771 116.159 666.755 106.955C659.101 97.751 649.214 92.9904 636.776 92.9904C624.338 92.9904 614.451 97.751 607.115 106.955C599.461 116.476 595.953 128.854 595.953 144.722C595.953 160.591 599.461 173.286 607.115 182.49Z" fill="#D9BBFC"/>
<path d="M842.101 58.0793C859.004 58.0793 872.08 63.4747 881.648 73.6306C891.216 84.104 896 98.3858 896 116.159V225.97H851.031V126.315C851.031 117.428 848.799 110.763 844.652 105.685C840.506 100.925 834.766 98.3858 827.111 98.3858C817.544 98.3858 809.57 102.194 803.83 109.494C797.77 116.793 794.9 126.315 794.9 138.375V225.97H749.931V62.2052H793.943L794.581 84.4213C805.105 66.9658 821.052 58.0793 842.101 58.0793Z" fill="#D9BBFC"/>
</g>
</svg>
